<?xml version="1.0" encoding="UTF-8" standalone="no"?>
<!-- Created with Inkscape (http://www.inkscape.org/) -->

<svg
   xmlns:dc="http://purl.org/dc/elements/1.1/"
   xmlns:cc="http://creativecommons.org/ns#"
   xmlns:rdf="http://www.w3.org/1999/02/22-rdf-syntax-ns#"
   xmlns:svg="http://www.w3.org/2000/svg"
   xmlns="http://www.w3.org/2000/svg"
   version="1.1"
   width="755.71875"
   height="755.71875"
   id="svg2">
  <defs
     id="defs4" />
  <metadata
     id="metadata7">
    <rdf:RDF>
      <cc:Work
         rdf:about="">
        <dc:format>image/svg+xml</dc:format>
        <dc:type
           rdf:resource="http://purl.org/dc/dcmitype/StillImage" />
        <dc:title></dc:title>
      </cc:Work>
    </rdf:RDF>
  </metadata>
  <path
     d="M 377.84375,0 C 169.15899,0 0,169.15899 0,377.84375 c 0,208.68476 169.15899,377.875 377.84375,377.875 208.68476,0 377.875,-169.19024 377.875,-377.875 C 755.71875,169.15899 586.52851,0 377.84375,0 z m -46.375,142.8125 2.34375,0 2.125,0 c 0,0 7.59511,21.38859 13.0625,30.59375 11.20895,18.87191 22.71417,13.50537 19.78125,33.78125 -0.83659,5.78346 -4.07111,10.17063 -8.25,13.5 15.03713,-0.23739 29.80197,0.38101 43.34375,2.375 -6.44424,-7.77308 -10.68599,-16.55165 -8.53125,-25.15625 6.17682,-24.66624 20.52535,-10.67284 47.0625,-23.9375 12.94403,-6.47011 35.4375,-25.03125 35.4375,-25.03125 l 3.46875,1.59375 -38.09375,81.71875 c 15.65969,5.04775 29.95832,11.70916 43.6875,20.8125 24.63803,16.33662 46.05696,37.27883 61.03125,64.34375 13.83429,25.09386 20.78089,51.42854 20.78125,79.03125 -3.6e-4,29.39554 -7.75686,57.10411 -23.21875,83.09375 -24.90266,41.76301 -61.90913,63.99897 -111.0625,66.6875 15.62475,11.82989 32.46458,21.95076 50.53125,30.375 18.22887,8.24506 37.76009,14.68352 58.59375,19.34375 5.04523,1.07545 7.56216,3.76075 7.5625,8.0625 -3.4e-4,5.91492 -3.73212,8.875 -11.21875,8.875 -17.09016,0 -41.10706,-8.22868 -72.03125,-24.71875 -25.71638,-13.80145 -55.17208,-35.14231 -88.375,-64 l 0,11.03125 0.25,45.6875 0,26.09375 -148.6875,0 0,-12.09375 0.46875,-87.65625 0.75,-104.84375 L 231.8125,246.625 187,150.53125 l 3.46875,-1.59375 c 0,0 22.52471,18.56114 35.46875,25.03125 26.53715,13.26467 40.85442,-0.72874 47.03125,23.9375 3.36485,13.43697 -8.87158,27.27673 -20.71875,37.09375 17.40572,-4.08254 41.94167,-9.43845 57.6875,-11.03125 0.53554,-0.0542 1.08758,-0.10275 1.625,-0.15625 -6.32308,-3.53996 -11.80614,-8.80373 -12.9375,-16.625 -2.93293,-20.27588 8.54105,-14.90934 19.75,-33.78125 5.4674,-9.20516 13.09375,-30.59375 13.09375,-30.59375 z m 49.96875,115.96875 -2.1875,180.15625 0,48.65625 0.25,12.625 c 9.9282,10.57526 20.48809,20.35058 31.71875,29.3125 l 11.71875,0.28125 c 33.5284,7e-5 61.85649,-10.32481 84.96875,-30.9375 14.64811,-12.90515 25.87467,-29.01694 33.6875,-48.375 7.32388,-17.74459 10.99965,-35.85059 11,-54.3125 -3.5e-4,-31.36675 -9.2894,-59.42087 -27.84375,-84.15625 -14.16047,-19.17837 -31.89743,-32.70686 -53.21875,-40.59375 -21.32186,-7.88621 -51.35699,-12.11818 -90.09375,-12.65625 z M 303.375,491 C 282.733,491 266,507.733 266,528.375 c 0,20.642 16.733,37.375 37.375,37.375 20.642,0 37.375,-16.733 37.375,-37.375 C 340.75,507.733 324.017,491 303.375,491 z"
     id="path3731"
     style="fill:#000000" />
  <g
     transform="translate(34.15625,-40.5625)"
     id="g4011"
     style="display:inline">
    <g
       transform="scale(0.95292114,1.0494048)"
       id="g4007"
       style="font-size:151.11428833px;font-style:normal;font-variant:normal;font-weight:normal;font-stretch:normal;line-height:125%;letter-spacing:0px;word-spacing:0px;fill:#000000;fill-opacity:1;stroke:none;display:inline;font-family:Broadway;-inkscape-font-specification:Broadway" />
  </g>
</svg>
