<?xml version="1.0" encoding="UTF-8" standalone="no"?>
<!-- Created with Inkscape (http://www.inkscape.org/) -->

<svg
   xmlns:dc="http://purl.org/dc/elements/1.1/"
   xmlns:cc="http://creativecommons.org/ns#"
   xmlns:rdf="http://www.w3.org/1999/02/22-rdf-syntax-ns#"
   xmlns:svg="http://www.w3.org/2000/svg"
   xmlns="http://www.w3.org/2000/svg"
   version="1.1"
   width="380.64371"
   height="99.354828"
   id="svg2">
  <defs
     id="defs4" />
  <metadata
     id="metadata7">
    <rdf:RDF>
      <cc:Work
         rdf:about="">
        <dc:format>image/svg+xml</dc:format>
        <dc:type
           rdf:resource="http://purl.org/dc/dcmitype/StillImage" />
        <dc:title></dc:title>
      </cc:Work>
    </rdf:RDF>
  </metadata>
  <g
     transform="translate(-210.6886,-641.01415)"
     id="g4011"
     style="display:inline">
    <g
       transform="scale(0.95292114,1.0494048)"
       id="g4007"
       style="font-size:151.11428833px;font-style:normal;font-variant:normal;font-weight:normal;font-stretch:normal;line-height:125%;letter-spacing:0px;word-spacing:0px;fill:#000000;fill-opacity:1;stroke:none;display:inline;font-family:Broadway;-inkscape-font-specification:Broadway" />
    <g
       transform="translate(70.74509,-52.7382)"
       id="text3318"
       style="font-size:50px;font-style:normal;font-variant:normal;font-weight:normal;font-stretch:normal;line-height:129.99999523%;letter-spacing:0px;word-spacing:0px;fill:#000000;fill-opacity:1;stroke:none;display:inline;font-family:Calibri;-inkscape-font-specification:Calibri">
      <path
         d="m 164.12921,727.63418 c -3e-5,0.14063 -0.0352,0.27246 -0.10547,0.39551 -0.0528,0.10547 -0.16702,0.19336 -0.34277,0.26367 -0.17581,0.0703 -0.41311,0.12305 -0.71191,0.15821 -0.29886,0.0527 -0.68558,0.0791 -1.16016,0.0791 -0.61526,0 -1.11624,-0.0264 -1.50293,-0.0791 -0.38674,-0.0527 -0.67678,-0.14942 -0.87012,-0.29004 -0.19338,-0.14063 -0.35158,-0.29883 -0.47461,-0.47461 l -12.55078,-17.05957 0,17.05957 c -1e-5,0.12305 -0.0352,0.24609 -0.10547,0.36914 -0.0703,0.10547 -0.19337,0.19336 -0.36914,0.26367 -0.17579,0.0527 -0.41309,0.0967 -0.71191,0.13184 -0.28126,0.0527 -0.64161,0.0791 -1.08106,0.0791 -0.42188,0 -0.78223,-0.0264 -1.08105,-0.0791 -0.29883,-0.0352 -0.53614,-0.0791 -0.71192,-0.13184 -0.17578,-0.0703 -0.29883,-0.1582 -0.36914,-0.26367 -0.0703,-0.12305 -0.10547,-0.24609 -0.10546,-0.36914 l 0,-32.74805 c -1e-5,-0.14059 0.0351,-0.26364 0.10546,-0.36914 0.0703,-0.10543 0.19336,-0.18454 0.36914,-0.2373 0.17578,-0.0703 0.41309,-0.12302 0.71192,-0.15821 0.29882,-0.0527 0.65917,-0.0791 1.08105,-0.0791 0.43945,4e-5 0.7998,0.0264 1.08106,0.0791 0.29882,0.0352 0.53612,0.0879 0.71191,0.15821 0.17577,0.0528 0.29882,0.13187 0.36914,0.2373 0.0703,0.1055 0.10546,0.22855 0.10547,0.36914 l 0,15.16113 12.07617,-15.16113 c 0.10545,-0.15817 0.2285,-0.29 0.36914,-0.39551 0.14061,-0.10543 0.3076,-0.18453 0.50098,-0.2373 0.21092,-0.0703 0.45701,-0.12301 0.73828,-0.1582 0.29881,-0.0351 0.67674,-0.0527 1.13379,-0.0527 0.45701,4e-5 0.82615,0.0264 1.10742,0.0791 0.28123,0.0352 0.50095,0.0879 0.65918,0.15821 0.17576,0.0703 0.29002,0.15823 0.34278,0.26367 0.0703,0.1055 0.10544,0.21976 0.10546,0.34277 -2e-5,0.22855 -0.0615,0.45707 -0.18457,0.68555 -0.10549,0.22855 -0.31643,0.54495 -0.63281,0.94922 L 151.31476,710.1 163.4964,726.28946 c 0.2988,0.45703 0.47458,0.77344 0.52734,0.94922 0.0703,0.1582 0.10544,0.29004 0.10547,0.3955"
         id="path3734" />
      <path
         d="m 195.98077,710.91739 c -3e-5,2.75978 -0.32522,5.24708 -0.97558,7.46191 -0.65042,2.21485 -1.62601,4.1045 -2.92676,5.66895 -1.28323,1.54687 -2.90042,2.74219 -4.85156,3.58593 -1.9512,0.82618 -4.22756,1.23926 -6.8291,1.23926 -2.56643,0 -4.79006,-0.37793 -6.6709,-1.13379 -1.86329,-0.77343 -3.41017,-1.88964 -4.64063,-3.34863 -1.21289,-1.45898 -2.11817,-3.26952 -2.71582,-5.43164 -0.59766,-2.1621 -0.89648,-4.6494 -0.89648,-7.46192 0,-2.68943 0.32519,-5.13279 0.97558,-7.33007 0.65039,-2.19724 1.62598,-4.06052 2.92676,-5.58985 1.30078,-1.54684 2.92675,-2.73336 4.87793,-3.55957 1.95116,-0.84371 4.22752,-1.26559 6.8291,-1.26562 2.51365,3e-5 4.70213,0.37796 6.56543,1.13379 1.86326,0.75589 3.41013,1.86331 4.64063,3.32226 1.24801,1.44144 2.17086,3.2344 2.76855,5.37891 0.6152,2.12697 0.92282,4.57033 0.92285,7.33008 m -4.77246,0.3164 c -3e-5,-1.93357 -0.17581,-3.72654 -0.52734,-5.3789 -0.33401,-1.6699 -0.9053,-3.11131 -1.71387,-4.32422 -0.79104,-1.23044 -1.85451,-2.18845 -3.19043,-2.87403 -1.33596,-0.68551 -2.9883,-1.02829 -4.95703,-1.02832 -1.96876,3e-5 -3.62111,0.36918 -4.95703,1.10743 -1.33595,0.73831 -2.42579,1.72268 -3.26953,2.95312 -0.82618,1.2305 -1.42384,2.6719 -1.79297,4.32422 -0.35157,1.63479 -0.52735,3.35744 -0.52734,5.16797 -1e-5,2.00392 0.16698,3.84962 0.50097,5.53711 0.33398,1.68751 0.89648,3.14649 1.6875,4.37695 0.79101,1.2129 1.84569,2.16212 3.16407,2.84766 1.33592,0.66797 3.00584,1.00195 5.00976,1.00195 1.98631,0 3.65623,-0.36914 5.00977,-1.10742 1.35349,-0.73828 2.44333,-1.73144 3.26953,-2.97949 0.82614,-1.26562 1.41501,-2.7246 1.7666,-4.37696 0.35153,-1.65233 0.52731,-3.40135 0.52734,-5.24707"
         id="path3736"
         style="font-size:54px;line-height:129.99999523%" />
      <path
         d="m 235.29425,727.37051 c -0.0704,0.2461 -0.17582,0.44824 -0.31641,0.60645 -0.14066,0.14062 -0.33402,0.25488 -0.58007,0.34277 -0.24613,0.0703 -0.55375,0.12305 -0.92286,0.1582 -0.35159,0.0352 -0.79105,0.0527 -1.31835,0.0527 -0.54496,0 -1.01078,-0.0176 -1.39747,-0.0527 -0.36917,-0.0352 -0.67679,-0.0879 -0.92285,-0.1582 -0.24612,-0.0879 -0.43069,-0.20215 -0.55371,-0.34277 -0.12308,-0.15821 -0.21976,-0.36035 -0.29004,-0.60645 l -7.14551,-25.76074 -0.0527,0 -6.5918,25.76074 c -0.0528,0.2461 -0.14064,0.44824 -0.26367,0.60645 -0.12306,0.14062 -0.29884,0.25488 -0.52734,0.34277 -0.22853,0.0703 -0.52736,0.12305 -0.89649,0.1582 -0.35157,0.0352 -0.8086,0.0527 -1.37109,0.0527 -0.58009,0 -1.06349,-0.0176 -1.4502,-0.0527 -0.38673,-0.0352 -0.70313,-0.0879 -0.94921,-0.1582 -0.24611,-0.0879 -0.43947,-0.20215 -0.58008,-0.34277 -0.12306,-0.15821 -0.21095,-0.36035 -0.26367,-0.60645 l -9.01758,-31.50879 c -0.10547,-0.40426 -0.167,-0.72067 -0.18457,-0.94922 0,-0.22848 0.0703,-0.40426 0.21093,-0.52734 0.15821,-0.12301 0.4043,-0.20211 0.73829,-0.2373 0.33398,-0.0351 0.78222,-0.0527 1.34472,-0.0527 0.54492,4e-5 0.97558,0.0176 1.29199,0.0527 0.31641,0.0176 0.55371,0.0616 0.71192,0.13183 0.17577,0.0704 0.29003,0.16703 0.34277,0.29004 0.0703,0.12308 0.12304,0.28128 0.15821,0.47461 l 7.67285,28.58203 0.0264,0 7.27735,-28.5293 c 0.0527,-0.19332 0.11423,-0.35152 0.18457,-0.47461 0.0879,-0.14059 0.2197,-0.24606 0.39551,-0.3164 0.17576,-0.0703 0.42185,-0.12301 0.73828,-0.1582 0.33396,-0.0351 0.76462,-0.0527 1.29199,-0.0527 0.49216,4e-5 0.87888,0.0176 1.16016,0.0527 0.2988,0.0352 0.5361,0.0879 0.71191,0.1582 0.17576,0.0703 0.2988,0.17581 0.36914,0.3164 0.0879,0.12309 0.15818,0.28129 0.21094,0.47461 l 7.83105,28.5293 0.0527,0 7.51465,-28.55566 c 0.0527,-0.17575 0.10542,-0.32516 0.1582,-0.44825 0.0527,-0.14059 0.15816,-0.24606 0.3164,-0.3164 0.17574,-0.0703 0.41305,-0.12301 0.71192,-0.1582 0.31636,-0.0351 0.72945,-0.0527 1.23926,-0.0527 0.5273,4e-5 0.94038,0.0264 1.23925,0.0791 0.31636,0.0352 0.54488,0.11429 0.68555,0.23731 0.14058,0.12308 0.2021,0.29886 0.18457,0.52734 -4e-5,0.22855 -0.044,0.54496 -0.13183,0.94922 l -9.04395,31.48242"
         id="path3738"
         style="font-size:54px;line-height:129.99999523%" />
      <path
         d="m 273.84308,726.76407 c 0.14059,0.38672 0.21091,0.70312 0.21094,0.94922 0.0175,0.22851 -0.044,0.40429 -0.18457,0.52734 -0.14066,0.12305 -0.37796,0.20215 -0.71192,0.2373 -0.31643,0.0352 -0.7471,0.0527 -1.29199,0.0527 -0.54495,0 -0.9844,-0.0176 -1.31836,-0.0527 -0.31643,-0.0176 -0.56253,-0.0527 -0.73828,-0.10547 -0.15823,-0.0703 -0.28128,-0.1582 -0.36914,-0.26367 -0.0703,-0.10547 -0.14065,-0.2373 -0.21094,-0.3955 l -2.92676,-8.30567 -14.18554,0 -2.79493,8.2002 c -0.0527,0.1582 -0.12305,0.29882 -0.21093,0.42187 -0.0879,0.10547 -0.21973,0.20215 -0.39551,0.29004 -0.15821,0.0703 -0.39551,0.12305 -0.71192,0.1582 -0.29883,0.0352 -0.69433,0.0527 -1.18652,0.0527 -0.50977,0 -0.93164,-0.0264 -1.26562,-0.0791 -0.31641,-0.0352 -0.54493,-0.11426 -0.68555,-0.23731 -0.12305,-0.12304 -0.18457,-0.29883 -0.18457,-0.52734 0.0176,-0.24609 0.0967,-0.5625 0.2373,-0.94922 l 11.44336,-31.69336 c 0.0703,-0.19333 0.15819,-0.35153 0.26368,-0.47461 0.12303,-0.12301 0.29002,-0.21969 0.50097,-0.29004 0.2285,-0.0703 0.50975,-0.11422 0.84375,-0.13183 0.35155,-0.0351 0.791,-0.0527 1.31836,-0.0527 0.56249,4e-5 1.0283,0.0176 1.39746,0.0527 0.36913,0.0176 0.66795,0.0616 0.89649,0.13183 0.22849,0.0704 0.40428,0.17582 0.52734,0.31641 0.12303,0.12308 0.21971,0.28128 0.29004,0.47461 l 11.44336,31.69336 m -14.68652,-27.97559 -0.0264,0 -5.87988,17.00684 11.86523,0 -5.95898,-17.00684"
         id="path3740"
         style="font-size:54px;line-height:129.99999523%" />
      <path
         d="m 297.20441,726.39493 c -3e-5,0.35156 -0.0176,0.65039 -0.0527,0.89648 -0.0352,0.22852 -0.0967,0.43066 -0.18457,0.60645 -0.0703,0.1582 -0.16701,0.28125 -0.29004,0.36914 -0.10549,0.0703 -0.23732,0.10546 -0.3955,0.10546 l -15.08204,0 c -0.4043,0 -0.79102,-0.13183 -1.16015,-0.3955 -0.35157,-0.28125 -0.52735,-0.76465 -0.52735,-1.4502 l 0,-31.58789 c 0,-0.14059 0.0352,-0.26364 0.10547,-0.36914 0.0703,-0.10543 0.19336,-0.18454 0.36914,-0.2373 0.17578,-0.0703 0.41308,-0.12302 0.71192,-0.15821 0.29882,-0.0527 0.65917,-0.0791 1.08105,-0.0791 0.43945,4e-5 0.7998,0.0264 1.08106,0.0791 0.29882,0.0352 0.53612,0.0879 0.71191,0.15821 0.17577,0.0528 0.29882,0.13187 0.36914,0.2373 0.0703,0.1055 0.10546,0.22855 0.10547,0.36914 l 0,29.50488 12.23438,0 c 0.15818,10e-6 0.29001,0.0439 0.3955,0.13184 0.12303,0.0703 0.21971,0.18457 0.29004,0.34277 0.0879,0.14063 0.14939,0.33399 0.18457,0.58008 0.0351,0.2461 0.0527,0.54493 0.0527,0.89649"
         id="path3742"
         style="font-size:54px;line-height:129.99999523%" />
      <path
         d="m 320.513,718.80118 c -2e-5,1.59961 -0.29885,3.02344 -0.89648,4.27148 -0.5801,1.24805 -1.39749,2.31153 -2.45215,3.19043 -1.03713,0.86133 -2.2676,1.51172 -3.69141,1.95117 -1.40626,0.43945 -2.92677,0.65918 -4.56152,0.65918 -1.14259,0 -2.20607,-0.0967 -3.19043,-0.29004 -0.96681,-0.19336 -1.83692,-0.43066 -2.61035,-0.71191 -0.75587,-0.28125 -1.39747,-0.57129 -1.92481,-0.87012 -0.50977,-0.29883 -0.87012,-0.55371 -1.08105,-0.76465 -0.19336,-0.21093 -0.34278,-0.4746 -0.44824,-0.79101 -0.0879,-0.33398 -0.13184,-0.77344 -0.13184,-1.31836 0,-0.38672 0.0176,-0.70312 0.0527,-0.94922 0.0352,-0.26367 0.0879,-0.4746 0.15821,-0.63281 0.0703,-0.1582 0.1582,-0.26367 0.26367,-0.31641 0.10546,-0.0703 0.22851,-0.10546 0.36914,-0.10547 0.24609,1e-5 0.58886,0.14942 1.02832,0.44824 0.45703,0.29884 1.0371,0.62403 1.74023,0.97559 0.70312,0.35157 1.54687,0.68555 2.53125,1.00195 1.00195,0.29883 2.15331,0.44825 3.45411,0.44824 0.98436,10e-6 1.88084,-0.13183 2.68945,-0.3955 0.82616,-0.26367 1.52928,-0.63281 2.10937,-1.10742 0.59764,-0.49219 1.05467,-1.08984 1.3711,-1.79297 0.31639,-0.70312 0.47459,-1.50293 0.47461,-2.39942 -2e-5,-0.96678 -0.21975,-1.79296 -0.65918,-2.47851 -0.43947,-0.68554 -1.01955,-1.28319 -1.74024,-1.79297 -0.72072,-0.52733 -1.54689,-1.00194 -2.47851,-1.42383 -0.91408,-0.43944 -1.85451,-0.87889 -2.82129,-1.31836 -0.96681,-0.45701 -1.90724,-0.95799 -2.82129,-1.50293 -0.91407,-0.5449 -1.73145,-1.1865 -2.45215,-1.9248 -0.72071,-0.73826 -1.30957,-1.59959 -1.7666,-2.58399 -0.43946,-1.00193 -0.65918,-2.19724 -0.65918,-3.58594 0,-1.4238 0.25488,-2.68942 0.76465,-3.79687 0.52734,-1.12497 1.24804,-2.0654 2.16211,-2.82129 0.93163,-0.75583 2.03026,-1.32711 3.2959,-1.71387 1.28319,-0.40426 2.66307,-0.60641 4.13964,-0.60644 0.75585,3e-5 1.51171,0.0703 2.26758,0.21094 0.77342,0.12308 1.49413,0.29886 2.16211,0.52734 0.68553,0.21097 1.29197,0.45706 1.81934,0.73828 0.52732,0.2637 0.87009,0.48343 1.02832,0.65918 0.17576,0.15824 0.29002,0.29007 0.34277,0.39551 0.0527,0.0879 0.0967,0.21097 0.13184,0.36914 0.0351,0.14065 0.0615,0.31644 0.0791,0.52734 0.0176,0.21097 0.0263,0.48343 0.0264,0.81738 -3e-5,0.31644 -0.0176,0.59769 -0.0527,0.84375 -0.0176,0.24613 -0.0528,0.45707 -0.10547,0.63282 -0.0528,0.15823 -0.13185,0.28128 -0.2373,0.36914 -0.0879,0.0703 -0.19338,0.1055 -0.31641,0.10547 -0.19338,3e-5 -0.50099,-0.12302 -0.92285,-0.36914 -0.40432,-0.24607 -0.90529,-0.51853 -1.50293,-0.81739 -0.59767,-0.31637 -1.30959,-0.59762 -2.13574,-0.84375 -0.80861,-0.26364 -1.72267,-0.39547 -2.74219,-0.3955 -0.94923,3e-5 -1.7754,0.13186 -2.47851,0.3955 -0.70314,0.24613 -1.28322,0.58011 -1.74024,1.00196 -0.45704,0.4219 -0.79981,0.92288 -1.02832,1.50293 -0.22852,0.5801 -0.34278,1.19534 -0.34277,1.8457 -1e-5,0.94924 0.21972,1.76663 0.65918,2.45215 0.43944,0.68557 1.01952,1.29201 1.74023,1.81933 0.73827,0.52737 1.57323,1.01077 2.50488,1.4502 0.93163,0.43947 1.88085,0.88771 2.84766,1.34473 0.96678,0.43947 1.916,0.93165 2.84766,1.47656 0.93162,0.52736 1.75779,1.16017 2.47851,1.89844 0.73826,0.72071 1.32713,1.58204 1.7666,2.58398 0.45701,0.98439 0.68553,2.15333 0.68555,3.50684"
         id="path3744"
         style="font-size:54px;line-height:129.99999523%" />
      <path
         d="m 349.22687,727.63418 c -3e-5,0.14063 -0.0352,0.27246 -0.10547,0.39551 -0.0528,0.10547 -0.16702,0.19336 -0.34277,0.26367 -0.17581,0.0703 -0.41312,0.12305 -0.71192,0.15821 -0.29885,0.0527 -0.68557,0.0791 -1.16015,0.0791 -0.61526,0 -1.11624,-0.0264 -1.50293,-0.0791 -0.38675,-0.0527 -0.67678,-0.14942 -0.87012,-0.29004 -0.19338,-0.14063 -0.35159,-0.29883 -0.47461,-0.47461 l -12.55078,-17.05957 0,17.05957 c -1e-5,0.12305 -0.0352,0.24609 -0.10547,0.36914 -0.0703,0.10547 -0.19337,0.19336 -0.36914,0.26367 -0.17579,0.0527 -0.4131,0.0967 -0.71192,0.13184 -0.28125,0.0527 -0.6416,0.0791 -1.08105,0.0791 -0.42188,0 -0.78223,-0.0264 -1.08106,-0.0791 -0.29883,-0.0352 -0.53613,-0.0791 -0.71191,-0.13184 -0.17579,-0.0703 -0.29883,-0.1582 -0.36914,-0.26367 -0.0703,-0.12305 -0.10547,-0.24609 -0.10547,-0.36914 l 0,-32.74805 c 0,-0.14059 0.0351,-0.26364 0.10547,-0.36914 0.0703,-0.10543 0.19335,-0.18454 0.36914,-0.2373 0.17578,-0.0703 0.41308,-0.12302 0.71191,-0.15821 0.29883,-0.0527 0.65918,-0.0791 1.08106,-0.0791 0.43945,4e-5 0.7998,0.0264 1.08105,0.0791 0.29882,0.0352 0.53613,0.0879 0.71192,0.15821 0.17577,0.0528 0.29882,0.13187 0.36914,0.2373 0.0703,0.1055 0.10546,0.22855 0.10547,0.36914 l 0,15.16113 12.07617,-15.16113 c 0.10545,-0.15817 0.22849,-0.29 0.36914,-0.39551 0.1406,-0.10543 0.3076,-0.18453 0.50098,-0.2373 0.21091,-0.0703 0.45701,-0.12301 0.73828,-0.1582 0.2988,-0.0351 0.67673,-0.0527 1.13379,-0.0527 0.457,4e-5 0.82614,0.0264 1.10742,0.0791 0.28122,0.0352 0.50095,0.0879 0.65918,0.15821 0.17575,0.0703 0.29001,0.15823 0.34277,0.26367 0.0703,0.1055 0.10544,0.21976 0.10547,0.34277 -3e-5,0.22855 -0.0616,0.45707 -0.18457,0.68555 -0.10549,0.22855 -0.31643,0.54495 -0.63281,0.94922 L 336.41241,710.1 l 12.18165,16.18946 c 0.2988,0.45703 0.47458,0.77344 0.52734,0.94922 0.0703,0.1582 0.10544,0.29004 0.10547,0.3955"
         id="path3746"
         style="font-size:54px;line-height:129.99999523%" />
      <path
         d="m 380.57745,726.76407 c 0.1406,0.38672 0.21091,0.70312 0.21094,0.94922 0.0176,0.22851 -0.044,0.40429 -0.18457,0.52734 -0.14065,0.12305 -0.37796,0.20215 -0.71191,0.2373 -0.31644,0.0352 -0.7471,0.0527 -1.292,0.0527 -0.54494,0 -0.9844,-0.0176 -1.31835,-0.0527 -0.31644,-0.0176 -0.56253,-0.0527 -0.73829,-0.10547 -0.15823,-0.0703 -0.28127,-0.1582 -0.36914,-0.26367 -0.0703,-0.10547 -0.14065,-0.2373 -0.21093,-0.3955 l -2.92676,-8.30567 -14.18555,0 -2.79492,8.2002 c -0.0527,0.1582 -0.12305,0.29882 -0.21094,0.42187 -0.0879,0.10547 -0.21973,0.20215 -0.39551,0.29004 -0.1582,0.0703 -0.39551,0.12305 -0.71191,0.1582 -0.29883,0.0352 -0.69434,0.0527 -1.18652,0.0527 -0.50977,0 -0.93165,-0.0264 -1.26563,-0.0791 -0.31641,-0.0352 -0.54492,-0.11426 -0.68555,-0.23731 -0.12304,-0.12304 -0.18457,-0.29883 -0.18457,-0.52734 0.0176,-0.24609 0.0967,-0.5625 0.23731,-0.94922 l 11.44336,-31.69336 c 0.0703,-0.19333 0.15819,-0.35153 0.26367,-0.47461 0.12303,-0.12301 0.29003,-0.21969 0.50098,-0.29004 0.2285,-0.0703 0.50975,-0.11422 0.84375,-0.13183 0.35154,-0.0351 0.791,-0.0527 1.31836,-0.0527 0.56248,4e-5 1.0283,0.0176 1.39746,0.0527 0.36912,0.0176 0.66795,0.0616 0.89648,0.13183 0.2285,0.0704 0.40428,0.17582 0.52735,0.31641 0.12302,0.12308 0.2197,0.28128 0.29003,0.47461 l 11.44336,31.69336 m -14.68652,-27.97559 -0.0264,0 -5.87988,17.00684 11.86523,0 -5.95898,-17.00684"
         id="path3748"
         style="font-size:54px;line-height:129.99999523%" />
      <path
         d="m 396.00226,715.05704 c -2e-5,0.68555 -0.0791,1.16016 -0.23731,1.42382 -0.15821,0.26369 -0.38673,0.39552 -0.68554,0.39551 l -11.02149,0 c -0.31641,1e-5 -0.55371,-0.13182 -0.71191,-0.39551 -0.15821,-0.28123 -0.23731,-0.75584 -0.23731,-1.42382 0,-0.66796 0.0791,-1.13378 0.23731,-1.39747 0.1582,-0.26365 0.3955,-0.39549 0.71191,-0.3955 l 11.02149,0 c 0.14061,1e-5 0.26365,0.0264 0.36914,0.0791 0.12303,0.0528 0.21971,0.15822 0.29004,0.3164 0.0879,0.14064 0.1494,0.32521 0.18457,0.55372 0.0527,0.22852 0.0791,0.50977 0.0791,0.84375"
         id="path3750"
         style="font-size:54px;line-height:129.99999523%" />
      <path
         d="m 420.70831,718.80118 c -2e-5,1.59961 -0.29885,3.02344 -0.89648,4.27148 -0.5801,1.24805 -1.39748,2.31153 -2.45215,3.19043 -1.03713,0.86133 -2.2676,1.51172 -3.69141,1.95117 -1.40626,0.43945 -2.92677,0.65918 -4.56152,0.65918 -1.14259,0 -2.20606,-0.0967 -3.19043,-0.29004 -0.9668,-0.19336 -1.83692,-0.43066 -2.61035,-0.71191 -0.75586,-0.28125 -1.39747,-0.57129 -1.92481,-0.87012 -0.50976,-0.29883 -0.87012,-0.55371 -1.08105,-0.76465 -0.19336,-0.21093 -0.34278,-0.4746 -0.44824,-0.79101 -0.0879,-0.33398 -0.13184,-0.77344 -0.13184,-1.31836 0,-0.38672 0.0176,-0.70312 0.0527,-0.94922 0.0352,-0.26367 0.0879,-0.4746 0.1582,-0.63281 0.0703,-0.1582 0.1582,-0.26367 0.26367,-0.31641 0.10547,-0.0703 0.22851,-0.10546 0.36914,-0.10547 0.24609,1e-5 0.58887,0.14942 1.02832,0.44824 0.45703,0.29884 1.03711,0.62403 1.74024,0.97559 0.70312,0.35157 1.54686,0.68555 2.53125,1.00195 1.00194,0.29883 2.15331,0.44825 3.4541,0.44824 0.98436,10e-6 1.88084,-0.13183 2.68945,-0.3955 0.82616,-0.26367 1.52928,-0.63281 2.10938,-1.10742 0.59764,-0.49219 1.05467,-1.08984 1.37109,-1.79297 0.31639,-0.70312 0.47459,-1.50293 0.47461,-2.39942 -2e-5,-0.96678 -0.21975,-1.79296 -0.65918,-2.47851 -0.43947,-0.68554 -1.01955,-1.28319 -1.74023,-1.79297 -0.72072,-0.52733 -1.54689,-1.00194 -2.47852,-1.42383 -0.91408,-0.43944 -1.8545,-0.87889 -2.82129,-1.31836 -0.96681,-0.45701 -1.90723,-0.95799 -2.82129,-1.50293 -0.91407,-0.5449 -1.73145,-1.1865 -2.45215,-1.9248 -0.7207,-0.73826 -1.30957,-1.59959 -1.7666,-2.58399 -0.43945,-1.00193 -0.65918,-2.19724 -0.65918,-3.58594 0,-1.4238 0.25488,-2.68942 0.76465,-3.79687 0.52734,-1.12497 1.24804,-2.0654 2.16211,-2.82129 0.93163,-0.75583 2.03027,-1.32711 3.2959,-1.71387 1.28319,-0.40426 2.66307,-0.60641 4.13965,-0.60644 0.75584,3e-5 1.5117,0.0703 2.26757,0.21094 0.77343,0.12308 1.49413,0.29886 2.16211,0.52734 0.68553,0.21097 1.29198,0.45706 1.81934,0.73828 0.52732,0.2637 0.8701,0.48343 1.02832,0.65918 0.17576,0.15824 0.29002,0.29007 0.34277,0.39551 0.0527,0.0879 0.0967,0.21097 0.13184,0.36914 0.0351,0.14065 0.0615,0.31644 0.0791,0.52734 0.0176,0.21097 0.0263,0.48343 0.0264,0.81738 -2e-5,0.31644 -0.0176,0.59769 -0.0527,0.84375 -0.0176,0.24613 -0.0528,0.45707 -0.10546,0.63282 -0.0528,0.15823 -0.13186,0.28128 -0.23731,0.36914 -0.0879,0.0703 -0.19338,0.1055 -0.31641,0.10547 -0.19338,3e-5 -0.50099,-0.12302 -0.92285,-0.36914 -0.40431,-0.24607 -0.90529,-0.51853 -1.50293,-0.81739 -0.59767,-0.31637 -1.30958,-0.59762 -2.13574,-0.84375 -0.80861,-0.26364 -1.72267,-0.39547 -2.74219,-0.3955 -0.94923,3e-5 -1.7754,0.13186 -2.47851,0.3955 -0.70314,0.24613 -1.28321,0.58011 -1.74024,1.00196 -0.45704,0.4219 -0.79981,0.92288 -1.02832,1.50293 -0.22852,0.5801 -0.34278,1.19534 -0.34277,1.8457 -10e-6,0.94924 0.21972,1.76663 0.65918,2.45215 0.43944,0.68557 1.01952,1.29201 1.74023,1.81933 0.73827,0.52737 1.57323,1.01077 2.50489,1.4502 0.93162,0.43947 1.88084,0.88771 2.84765,1.34473 0.96678,0.43947 1.916,0.93165 2.84766,1.47656 0.93162,0.52736 1.75779,1.16017 2.47851,1.89844 0.73826,0.72071 1.32713,1.58204 1.76661,2.58398 0.457,0.98439 0.68552,2.15333 0.68554,3.50684"
         id="path3752"
         style="font-size:54px;line-height:129.99999523%" />
      <path
         d="m 448.23566,696.2045 c -3e-5,0.33401 -0.0176,0.62405 -0.0527,0.87011 -0.0352,0.24613 -0.0967,0.44828 -0.18457,0.60645 -0.0703,0.14065 -0.16702,0.24612 -0.29004,0.3164 -0.10549,0.0703 -0.22854,0.1055 -0.36914,0.10547 l -9.59765,0 0,29.58399 c -2e-5,0.14062 -0.0352,0.26367 -0.10547,0.36914 -0.0703,0.10547 -0.19338,0.19336 -0.36914,0.26367 -0.1758,0.0527 -0.4131,0.0967 -0.71192,0.13184 -0.28126,0.0527 -0.64161,0.0791 -1.08105,0.0791 -0.42189,0 -0.78224,-0.0264 -1.08106,-0.0791 -0.29884,-0.0352 -0.53614,-0.0791 -0.71191,-0.13184 -0.17579,-0.0703 -0.29884,-0.1582 -0.36914,-0.26367 -0.0703,-0.10547 -0.10548,-0.22852 -0.10547,-0.36914 l 0,-29.58399 -9.59766,0 c -0.14062,3e-5 -0.27246,-0.0351 -0.3955,-0.10547 -0.10547,-0.0703 -0.19336,-0.17575 -0.26368,-0.3164 -0.0703,-0.15817 -0.13183,-0.36032 -0.18457,-0.60645 -0.0351,-0.24606 -0.0527,-0.5361 -0.0527,-0.87011 0,-0.33396 0.0176,-0.62399 0.0527,-0.87012 0.0527,-0.26364 0.11426,-0.47458 0.18457,-0.63281 0.0703,-0.15817 0.15821,-0.27243 0.26368,-0.34278 0.12304,-0.0703 0.25488,-0.10543 0.3955,-0.10547 l 23.73047,0 c 0.1406,4e-5 0.26365,0.0352 0.36914,0.10547 0.12302,0.0703 0.2197,0.18461 0.29004,0.34278 0.0879,0.15823 0.14939,0.36917 0.18457,0.63281 0.0351,0.24613 0.0527,0.53616 0.0527,0.87012"
         id="path3754"
         style="font-size:54px;line-height:129.99999523%" />
      <path
         d="m 474.55011,726.76407 c 0.14059,0.38672 0.21091,0.70312 0.21094,0.94922 0.0175,0.22851 -0.044,0.40429 -0.18457,0.52734 -0.14066,0.12305 -0.37796,0.20215 -0.71192,0.2373 -0.31643,0.0352 -0.7471,0.0527 -1.29199,0.0527 -0.54495,0 -0.9844,-0.0176 -1.31836,-0.0527 -0.31643,-0.0176 -0.56252,-0.0527 -0.73828,-0.10547 -0.15823,-0.0703 -0.28128,-0.1582 -0.36914,-0.26367 -0.0703,-0.10547 -0.14065,-0.2373 -0.21094,-0.3955 l -2.92676,-8.30567 -14.18554,0 -2.79492,8.2002 c -0.0527,0.1582 -0.12306,0.29882 -0.21094,0.42187 -0.0879,0.10547 -0.21973,0.20215 -0.39551,0.29004 -0.15821,0.0703 -0.39551,0.12305 -0.71191,0.1582 -0.29884,0.0352 -0.69434,0.0527 -1.18653,0.0527 -0.50977,0 -0.93164,-0.0264 -1.26562,-0.0791 -0.31641,-0.0352 -0.54493,-0.11426 -0.68555,-0.23731 -0.12305,-0.12304 -0.18457,-0.29883 -0.18457,-0.52734 0.0176,-0.24609 0.0967,-0.5625 0.23731,-0.94922 l 11.44335,-31.69336 c 0.0703,-0.19333 0.15819,-0.35153 0.26368,-0.47461 0.12303,-0.12301 0.29002,-0.21969 0.50097,-0.29004 0.22851,-0.0703 0.50975,-0.11422 0.84375,-0.13183 0.35155,-0.0351 0.791,-0.0527 1.31836,-0.0527 0.56249,4e-5 1.02831,0.0176 1.39746,0.0527 0.36913,0.0176 0.66795,0.0616 0.89649,0.13183 0.2285,0.0704 0.40428,0.17582 0.52734,0.31641 0.12303,0.12308 0.21971,0.28128 0.29004,0.47461 l 11.44336,31.69336 m -14.68652,-27.97559 -0.0264,0 -5.87988,17.00684 11.86523,0 -5.95898,-17.00684"
         id="path3756"
         style="font-size:54px;line-height:129.99999523%" />
      <path
         d="m 497.91144,726.39493 c -2e-5,0.35156 -0.0176,0.65039 -0.0527,0.89648 -0.0352,0.22852 -0.0967,0.43066 -0.18457,0.60645 -0.0703,0.1582 -0.16701,0.28125 -0.29004,0.36914 -0.10549,0.0703 -0.23732,0.10546 -0.3955,0.10546 l -15.08203,0 c -0.40431,0 -0.79103,-0.13183 -1.16016,-0.3955 -0.35157,-0.28125 -0.52735,-0.76465 -0.52734,-1.4502 l 0,-31.58789 c -1e-5,-0.14059 0.0351,-0.26364 0.10546,-0.36914 0.0703,-0.10543 0.19336,-0.18454 0.36914,-0.2373 0.17578,-0.0703 0.41309,-0.12302 0.71192,-0.15821 0.29882,-0.0527 0.65917,-0.0791 1.08105,-0.0791 0.43945,4e-5 0.7998,0.0264 1.08106,0.0791 0.29882,0.0352 0.53612,0.0879 0.71191,0.15821 0.17577,0.0528 0.29882,0.13187 0.36914,0.2373 0.0703,0.1055 0.10546,0.22855 0.10547,0.36914 l 0,29.50488 12.23438,0 c 0.15818,10e-6 0.29001,0.0439 0.3955,0.13184 0.12303,0.0703 0.21971,0.18457 0.29004,0.34277 0.0879,0.14063 0.1494,0.33399 0.18457,0.58008 0.0351,0.2461 0.0527,0.54493 0.0527,0.89649"
         id="path3758"
         style="font-size:54px;line-height:129.99999523%" />
      <path
         d="m 520.58722,726.39493 c -2e-5,0.35156 -0.0176,0.65039 -0.0527,0.89648 -0.0352,0.22852 -0.0967,0.43066 -0.18457,0.60645 -0.0703,0.1582 -0.16701,0.28125 -0.29003,0.36914 -0.10549,0.0703 -0.23733,0.10546 -0.39551,0.10546 l -15.08203,0 c -0.40431,0 -0.79102,-0.13183 -1.16016,-0.3955 -0.35157,-0.28125 -0.52735,-0.76465 -0.52734,-1.4502 l 0,-31.58789 c -10e-6,-0.14059 0.0351,-0.26364 0.10547,-0.36914 0.0703,-0.10543 0.19335,-0.18454 0.36914,-0.2373 0.17577,-0.0703 0.41308,-0.12302 0.71191,-0.15821 0.29882,-0.0527 0.65917,-0.0791 1.08105,-0.0791 0.43945,4e-5 0.7998,0.0264 1.08106,0.0791 0.29882,0.0352 0.53612,0.0879 0.71191,0.15821 0.17578,0.0528 0.29882,0.13187 0.36914,0.2373 0.0703,0.1055 0.10546,0.22855 0.10547,0.36914 l 0,29.50488 12.23438,0 c 0.15818,10e-6 0.29002,0.0439 0.39551,0.13184 0.12302,0.0703 0.2197,0.18457 0.29003,0.34277 0.0879,0.14063 0.1494,0.33399 0.18457,0.58008 0.0351,0.2461 0.0527,0.54493 0.0527,0.89649"
         id="path3760"
         style="font-size:54px;line-height:129.99999523%" />
      <path
         d="m 152.71906,787.15843 c -2e-5,0.0807 -0.0202,0.15642 -0.0606,0.22706 -0.0303,0.0605 -0.0959,0.111 -0.19678,0.15136 -0.10093,0.0404 -0.23716,0.0706 -0.40869,0.0908 -0.17156,0.0303 -0.39357,0.0454 -0.66602,0.0454 -0.3532,0 -0.6408,-0.0151 -0.86279,-0.0454 -0.22202,-0.0303 -0.38852,-0.0858 -0.49951,-0.1665 -0.11102,-0.0807 -0.20184,-0.17155 -0.27246,-0.27246 l -7.20508,-9.79346 0,9.79346 c -1e-5,0.0706 -0.0202,0.14127 -0.0606,0.21191 -0.0404,0.0606 -0.111,0.111 -0.21191,0.15137 -0.10092,0.0303 -0.23715,0.0555 -0.40869,0.0757 -0.16146,0.0303 -0.36833,0.0454 -0.62061,0.0454 -0.24219,0 -0.44906,-0.0151 -0.6206,-0.0454 -0.17156,-0.0202 -0.30779,-0.0454 -0.40869,-0.0757 -0.10092,-0.0404 -0.17156,-0.0908 -0.21192,-0.15137 -0.0404,-0.0706 -0.0606,-0.14127 -0.0606,-0.21191 l 0,-18.79981 c 0,-0.0807 0.0202,-0.15134 0.0606,-0.21191 0.0404,-0.0605 0.111,-0.10594 0.21192,-0.13623 0.1009,-0.0403 0.23713,-0.0706 0.40869,-0.0908 0.17154,-0.0303 0.37841,-0.0454 0.6206,-0.0454 0.25228,2e-5 0.45915,0.0151 0.62061,0.0454 0.17154,0.0202 0.30777,0.0505 0.40869,0.0908 0.10091,0.0303 0.17154,0.0757 0.21191,0.13623 0.0404,0.0606 0.0605,0.1312 0.0606,0.21191 l 0,8.70362 6.93262,-8.70362 c 0.0605,-0.0908 0.13117,-0.16648 0.21191,-0.22705 0.0807,-0.0605 0.17658,-0.10593 0.2876,-0.13623 0.12108,-0.0403 0.26236,-0.0706 0.42383,-0.0908 0.17153,-0.0202 0.38849,-0.0303 0.65088,-0.0303 0.26235,2e-5 0.47427,0.0151 0.63574,0.0454 0.16144,0.0202 0.28758,0.0505 0.37842,0.0908 0.10089,0.0404 0.16649,0.0908 0.19677,0.15137 0.0403,0.0606 0.0605,0.12615 0.0606,0.19677 -1e-5,0.13121 -0.0353,0.26239 -0.10596,0.39356 -0.0606,0.1312 -0.18165,0.31284 -0.36328,0.54492 l -6.49365,7.76514 6.99316,9.29394 c 0.17154,0.26237 0.27245,0.44401 0.30274,0.54492 0.0403,0.0908 0.0605,0.16651 0.0606,0.22705"
         id="path3762"
         style="font-size:31px;line-height:180.99999428%;letter-spacing:0.25999999px" />
      <path
         d="m 171.26421,777.56175 c -2e-5,1.58432 -0.1867,3.01222 -0.56006,4.2837 -0.37339,1.27149 -0.93345,2.35628 -1.68017,3.25439 -0.73667,0.88802 -1.66506,1.57422 -2.78516,2.05859 -1.12013,0.47429 -2.42693,0.71143 -3.92041,0.71143 -1.47332,0 -2.74984,-0.21696 -3.82959,-0.65088 -1.06967,-0.44401 -1.95769,-1.0848 -2.66406,-1.92236 -0.69629,-0.83756 -1.21599,-1.87695 -1.55908,-3.11817 -0.3431,-1.2412 -0.51465,-2.6691 -0.51465,-4.28369 0,-1.54393 0.18668,-2.9466 0.56006,-4.20801 0.37337,-1.26137 0.93342,-2.33103 1.68017,-3.20898 0.74674,-0.888 1.68017,-1.56915 2.8003,-2.04346 1.1201,-0.48435 2.42691,-0.72654 3.92041,-0.72656 1.44302,2e-5 2.69936,0.21698 3.76904,0.65088 1.06964,0.43394 1.95766,1.06968 2.66406,1.90723 0.71645,0.82749 1.24624,1.85678 1.58936,3.08789 0.35317,1.22104 0.52976,2.62371 0.52978,4.208 m -2.73974,0.18165 c -2e-5,-1.11002 -0.10093,-2.13932 -0.30274,-3.0879 -0.19175,-0.95864 -0.51971,-1.78611 -0.98389,-2.48242 -0.45411,-0.70636 -1.06463,-1.25633 -1.83154,-1.6499 -0.76694,-0.39354 -1.7155,-0.59031 -2.8457,-0.59033 -1.13022,2e-5 -2.07879,0.21193 -2.8457,0.63574 -0.76694,0.42385 -1.39259,0.98895 -1.87696,1.69531 -0.47429,0.7064 -0.81739,1.53387 -1.02929,2.48243 -0.20183,0.93848 -0.30274,1.92742 -0.30274,2.96679 0,1.1504 0.0959,2.20997 0.2876,3.17871 0.19173,0.96876 0.51464,1.80632 0.96875,2.5127 0.45409,0.69629 1.05956,1.24121 1.8164,1.63476 0.76692,0.38347 1.72558,0.5752 2.87598,0.5752 1.14029,0 2.09895,-0.21191 2.87598,-0.63574 0.777,-0.42383 1.40265,-0.99398 1.87695,-1.71045 0.47427,-0.72656 0.81232,-1.56412 1.01416,-2.5127 0.20181,-0.94856 0.30272,-1.95263 0.30274,-3.0122"
         id="path3764"
         style="font-size:31px;line-height:180.99999428%;letter-spacing:0.25999999px" />
      <path
         d="m 196.93876,787.18871 c -2e-5,0.0807 -0.0202,0.15137 -0.0605,0.21191 -0.0404,0.0606 -0.11103,0.111 -0.21192,0.15137 -0.10093,0.0303 -0.23212,0.0555 -0.39355,0.0757 -0.15139,0.0303 -0.35322,0.0454 -0.60547,0.0454 -0.23212,0 -0.43394,-0.0151 -0.60547,-0.0454 -0.16148,-0.0202 -0.29267,-0.0454 -0.39356,-0.0757 -0.0908,-0.0404 -0.15643,-0.0908 -0.19677,-0.15137 -0.0404,-0.0605 -0.0606,-0.13118 -0.0606,-0.21191 l 0,-17.05908 -0.0303,0 -6.97803,17.13476 c -0.0303,0.0706 -0.0757,0.13119 -0.13623,0.18164 -0.0505,0.0505 -0.1312,0.0959 -0.24219,0.13623 -0.10092,0.0303 -0.22706,0.0505 -0.37842,0.0606 -0.14129,0.0202 -0.31283,0.0303 -0.51464,0.0303 -0.21193,0 -0.39357,-0.0101 -0.54493,-0.0303 -0.15138,-0.0202 -0.27752,-0.0454 -0.37841,-0.0757 -0.10093,-0.0404 -0.18166,-0.0858 -0.24219,-0.13623 -0.0505,-0.0505 -0.0858,-0.10596 -0.10596,-0.16651 l -6.67529,-17.13476 -0.0151,0 0,17.05908 c 0,0.0807 -0.0202,0.15137 -0.0606,0.21191 -0.0404,0.0606 -0.111,0.111 -0.21191,0.15137 -0.10092,0.0303 -0.2321,0.0555 -0.39355,0.0757 -0.16147,0.0303 -0.36834,0.0454 -0.62061,0.0454 -0.24219,0 -0.44401,-0.0151 -0.60547,-0.0454 -0.16146,-0.0202 -0.29264,-0.0454 -0.39355,-0.0757 -0.0908,-0.0404 -0.15642,-0.0908 -0.19678,-0.15137 -0.0303,-0.0605 -0.0454,-0.13118 -0.0454,-0.21191 l 0,-18.0127 c 0,-0.42381 0.111,-0.72654 0.33301,-0.9082 0.222,-0.18162 0.46923,-0.27244 0.7417,-0.27246 l 1.57422,0 c 0.32291,2e-5 0.60546,0.0303 0.84765,0.0908 0.24218,0.0606 0.4541,0.15643 0.63574,0.2876 0.18164,0.1312 0.333,0.2977 0.45411,0.49951 0.12108,0.20184 0.22704,0.43898 0.31787,0.71142 l 5.67627,14.18311 0.0757,0 5.90332,-14.1377 c 0.11098,-0.30271 0.23208,-0.56004 0.36328,-0.77197 0.13117,-0.21189 0.27244,-0.3784 0.42383,-0.49951 0.16144,-0.13117 0.33803,-0.22199 0.52978,-0.27246 0.19172,-0.0605 0.41372,-0.0908 0.66602,-0.0908 l 1.6499,0 c 0.15135,2e-5 0.29262,0.0252 0.42383,0.0757 0.14125,0.0404 0.2573,0.11102 0.34814,0.21192 0.10089,0.0908 0.18162,0.21193 0.24219,0.36328 0.0605,0.14129 0.0908,0.31789 0.0908,0.52978 l 0,18.0127"
         id="path3766"
         style="font-size:31px;line-height:180.99999428%;letter-spacing:0.25999999px" />
      <path
         d="m 214.45462,773.73217 c -1e-5,0.97885 -0.16147,1.86182 -0.48437,2.64892 -0.32294,0.78712 -0.78713,1.45818 -1.39258,2.01318 -0.59539,0.55503 -1.33205,0.9839 -2.20996,1.28663 -0.86785,0.30274 -1.90724,0.4541 -3.11817,0.4541 l -2.2251,0 0,7.05371 c 0,0.0807 -0.0252,0.15137 -0.0757,0.21191 -0.0404,0.0606 -0.11101,0.111 -0.21191,0.15137 -0.0908,0.0303 -0.22201,0.0555 -0.39356,0.0757 -0.16146,0.0303 -0.36833,0.0454 -0.6206,0.0454 -0.25229,0 -0.4642,-0.0151 -0.63575,-0.0454 -0.16146,-0.0202 -0.29264,-0.0454 -0.39355,-0.0757 -0.10091,-0.0404 -0.17155,-0.0908 -0.21191,-0.15137 -0.0404,-0.0605 -0.0606,-0.13118 -0.0606,-0.21191 l 0,-18.07324 c 0,-0.40363 0.10595,-0.69123 0.31787,-0.8628 0.21191,-0.17153 0.44905,-0.2573 0.71143,-0.25732 l 4.19287,0 c 0.42382,2e-5 0.82746,0.0202 1.21093,0.0605 0.39355,0.0303 0.8527,0.10597 1.37745,0.22705 0.53482,0.11102 1.07469,0.32798 1.61962,0.65088 0.55501,0.31284 1.02424,0.70135 1.40772,1.16552 0.38345,0.46421 0.67609,1.00409 0.87793,1.61963 0.2119,0.60549 0.31786,1.27655 0.31787,2.01319 m -2.73975,0.21191 c -1e-5,-0.79719 -0.15137,-1.4632 -0.4541,-1.99805 -0.29265,-0.53481 -0.66098,-0.93341 -1.10498,-1.1958 -0.43393,-0.26235 -0.88803,-0.42885 -1.3623,-0.49951 -0.4642,-0.0706 -0.9183,-0.10594 -1.36231,-0.10596 l -2.40674,0 0,7.85596 2.3462,0 c 0.7871,10e-6 1.43798,-0.1009 1.95263,-0.30273 0.52473,-0.20182 0.9637,-0.47932 1.3169,-0.83252 0.35318,-0.36327 0.62059,-0.79215 0.80224,-1.28663 0.18163,-0.50454 0.27245,-1.04946 0.27246,-1.63476"
         id="path3768"
         style="font-size:31px;line-height:180.99999428%;letter-spacing:0.25999999px" />
      <path
         d="m 228.88259,786.44701 c -1e-5,0.20182 -0.0101,0.37337 -0.0303,0.51465 -0.0202,0.13118 -0.0555,0.24723 -0.10596,0.34814 -0.0404,0.0908 -0.0959,0.16146 -0.1665,0.21192 -0.0606,0.0404 -0.13625,0.0605 -0.22705,0.0605 l -8.65821,0 c -0.2321,0 -0.4541,-0.0757 -0.66601,-0.22705 -0.20183,-0.16146 -0.30274,-0.43896 -0.30274,-0.83252 l 0,-18.13379 c 0,-0.0807 0.0202,-0.15134 0.0605,-0.21191 0.0404,-0.0605 0.111,-0.10594 0.21191,-0.13623 0.10091,-0.0403 0.23714,-0.0706 0.4087,-0.0908 0.17154,-0.0303 0.37841,-0.0454 0.6206,-0.0454 0.25228,2e-5 0.45914,0.0151 0.62061,0.0454 0.17154,0.0202 0.30777,0.0505 0.40869,0.0908 0.1009,0.0303 0.17154,0.0757 0.21191,0.13623 0.0404,0.0606 0.0605,0.1312 0.0606,0.21191 l 0,16.93799 7.02344,0 c 0.0908,0 0.16649,0.0252 0.22705,0.0757 0.0706,0.0404 0.12612,0.10595 0.1665,0.19677 0.0504,0.0807 0.0858,0.19174 0.10596,0.33301 0.0202,0.14128 0.0303,0.31283 0.0303,0.51465"
         id="path3770"
         style="font-size:31px;line-height:180.99999428%;letter-spacing:0.25999999px" />
      <path
         d="m 242.90187,786.50756 c -1e-5,0.18164 -0.0101,0.3431 -0.0303,0.48437 -0.0202,0.13119 -0.0555,0.24219 -0.10596,0.33301 -0.0505,0.0908 -0.11102,0.15641 -0.18164,0.19678 -0.0606,0.0404 -0.1312,0.0605 -0.21191,0.0605 l -9.39991,0 c -0.2321,0 -0.4541,-0.0757 -0.66601,-0.22705 -0.20183,-0.16146 -0.30274,-0.43896 -0.30274,-0.83252 l 0,-17.46777 c 0,-0.39354 0.10091,-0.666 0.30274,-0.81738 0.21191,-0.16144 0.43391,-0.24217 0.66601,-0.24219 l 9.29395,0 c 0.0807,2e-5 0.15135,0.0202 0.21191,0.0605 0.0706,0.0404 0.12613,0.10597 0.16651,0.19677 0.0403,0.0908 0.0706,0.20689 0.0908,0.34815 0.0303,0.1312 0.0454,0.2977 0.0454,0.49951 -2e-5,0.18166 -0.0152,0.34312 -0.0454,0.48437 -0.0202,0.13121 -0.0505,0.24221 -0.0908,0.33301 -0.0404,0.0807 -0.0959,0.1413 -0.16651,0.18164 -0.0606,0.0404 -0.1312,0.0606 -0.21191,0.0606 l -7.65918,0 0,6.14551 6.56933,0 c 0.0807,10e-6 0.15136,0.0252 0.21192,0.0757 0.0706,0.0404 0.12613,0.10092 0.1665,0.18164 0.0505,0.0807 0.0858,0.19174 0.10596,0.33301 0.0202,0.14129 0.0303,0.30779 0.0303,0.49951 -1e-5,0.18165 -0.0101,0.33806 -0.0303,0.46924 -0.0202,0.13119 -0.0555,0.23715 -0.10596,0.31787 -0.0404,0.0807 -0.0959,0.14129 -0.1665,0.18164 -0.0606,0.0303 -0.1312,0.0454 -0.21192,0.0454 l -6.56933,0 0,7.0083 7.76514,0 c 0.0807,0 0.15135,0.0202 0.21191,0.0605 0.0706,0.0404 0.13117,0.10596 0.18164,0.19678 0.0504,0.0807 0.0858,0.19173 0.10596,0.333 0.0202,0.13119 0.0303,0.29769 0.0303,0.49952"
         id="path3772"
         style="font-size:31px;line-height:180.99999428%;letter-spacing:0.25999999px" />
      <path
         d="m 260.17554,787.15843 c -2e-5,0.0807 -0.0202,0.15642 -0.0606,0.22706 -0.0303,0.0605 -0.0959,0.111 -0.19678,0.15136 -0.10092,0.0404 -0.23715,0.0706 -0.40869,0.0908 -0.17156,0.0303 -0.39357,0.0454 -0.66601,0.0454 -0.35321,0 -0.64081,-0.0151 -0.8628,-0.0454 -0.22202,-0.0303 -0.38852,-0.0858 -0.49951,-0.1665 -0.11101,-0.0807 -0.20183,-0.17155 -0.27246,-0.27246 l -7.20508,-9.79346 0,9.79346 c 0,0.0706 -0.0202,0.14127 -0.0605,0.21191 -0.0404,0.0606 -0.11101,0.111 -0.21192,0.15137 -0.10092,0.0303 -0.23715,0.0555 -0.40869,0.0757 -0.16146,0.0303 -0.36833,0.0454 -0.62061,0.0454 -0.24219,0 -0.44906,-0.0151 -0.6206,-0.0454 -0.17155,-0.0202 -0.30778,-0.0454 -0.40869,-0.0757 -0.10092,-0.0404 -0.17155,-0.0908 -0.21192,-0.15137 -0.0404,-0.0706 -0.0606,-0.14127 -0.0605,-0.21191 l 0,-18.79981 c -1e-5,-0.0807 0.0202,-0.15134 0.0605,-0.21191 0.0404,-0.0605 0.111,-0.10594 0.21192,-0.13623 0.10091,-0.0403 0.23714,-0.0706 0.40869,-0.0908 0.17154,-0.0303 0.37841,-0.0454 0.6206,-0.0454 0.25228,2e-5 0.45915,0.0151 0.62061,0.0454 0.17154,0.0202 0.30777,0.0505 0.40869,0.0908 0.10091,0.0303 0.17155,0.0757 0.21192,0.13623 0.0404,0.0606 0.0605,0.1312 0.0605,0.21191 l 0,8.70362 6.93262,-8.70362 c 0.0605,-0.0908 0.13117,-0.16648 0.21191,-0.22705 0.0807,-0.0605 0.17659,-0.10593 0.2876,-0.13623 0.12108,-0.0403 0.26236,-0.0706 0.42383,-0.0908 0.17154,-0.0202 0.38849,-0.0303 0.65088,-0.0303 0.26235,2e-5 0.47427,0.0151 0.63574,0.0454 0.16144,0.0202 0.28758,0.0505 0.37842,0.0908 0.10089,0.0404 0.16649,0.0908 0.19678,0.15137 0.0404,0.0606 0.0605,0.12615 0.0605,0.19677 -10e-6,0.13121 -0.0353,0.26239 -0.10595,0.39356 -0.0606,0.1312 -0.18166,0.31284 -0.36329,0.54492 l -6.49365,7.76514 6.99317,9.29394 c 0.17153,0.26237 0.27244,0.44401 0.30273,0.54492 0.0404,0.0908 0.0605,0.16651 0.0606,0.22705"
         id="path3774"
         style="font-size:31px;line-height:180.99999428%;letter-spacing:0.25999999px" />
      <path
         d="m 274.04345,782.08763 c -1e-5,0.9183 -0.17156,1.73568 -0.51465,2.45215 -0.33302,0.71648 -0.80226,1.32699 -1.40771,1.83155 -0.59539,0.49446 -1.30177,0.86783 -2.11914,1.12011 -0.8073,0.25228 -1.68019,0.37842 -2.61866,0.37842 -0.65593,0 -1.26644,-0.0555 -1.83154,-0.1665 -0.55502,-0.11101 -1.05453,-0.24724 -1.49853,-0.40869 -0.43393,-0.16146 -0.80225,-0.32797 -1.10499,-0.49952 -0.29264,-0.17155 -0.49951,-0.31787 -0.6206,-0.43896 -0.111,-0.12109 -0.19678,-0.27246 -0.25733,-0.4541 -0.0504,-0.19173 -0.0757,-0.44401 -0.0757,-0.75684 0,-0.222 0.0101,-0.40364 0.0303,-0.54492 0.0202,-0.15136 0.0505,-0.27246 0.0908,-0.36328 0.0404,-0.0908 0.0908,-0.15137 0.15136,-0.18164 0.0605,-0.0404 0.13119,-0.0606 0.21192,-0.0606 0.14127,0 0.33805,0.0858 0.59033,0.25732 0.26237,0.17156 0.59537,0.35824 0.99902,0.56006 0.40364,0.20183 0.88802,0.39356 1.45313,0.5752 0.57519,0.17155 1.23616,0.25732 1.98291,0.25732 0.56509,0 1.07974,-0.0757 1.54394,-0.22705 0.47428,-0.15136 0.87792,-0.36328 1.21094,-0.63574 0.34309,-0.28255 0.60546,-0.62565 0.78711,-1.0293 0.18163,-0.40364 0.27245,-0.86279 0.27246,-1.37744 -1e-5,-0.55501 -0.12615,-1.02929 -0.37842,-1.42285 -0.25229,-0.39355 -0.58529,-0.73665 -0.99902,-1.0293 -0.41375,-0.30272 -0.88803,-0.57518 -1.42285,-0.81738 -0.52475,-0.25227 -1.06463,-0.50455 -1.61963,-0.75684 -0.55502,-0.26236 -1.0949,-0.54995 -1.61963,-0.86279 -0.52474,-0.31281 -0.99398,-0.68114 -1.40772,-1.10498 -0.41374,-0.42382 -0.75179,-0.91828 -1.01416,-1.4834 -0.25228,-0.57518 -0.37842,-1.26138 -0.37841,-2.05859 -10e-6,-0.81737 0.14632,-1.54393 0.43896,-2.17969 0.30273,-0.64581 0.71647,-1.18569 1.24121,-1.61963 0.53483,-0.4339 1.16552,-0.76186 1.89209,-0.98388 0.73665,-0.23208 1.5288,-0.34813 2.37647,-0.34815 0.43391,2e-5 0.86783,0.0404 1.30175,0.12109 0.44401,0.0707 0.85774,0.17157 1.24122,0.30274 0.39354,0.12111 0.74168,0.26239 1.04443,0.42383 0.30272,0.15138 0.4995,0.27752 0.59033,0.37842 0.1009,0.0908 0.16649,0.16652 0.19678,0.22705 0.0303,0.0505 0.0555,0.12111 0.0757,0.21191 0.0202,0.0807 0.0353,0.18166 0.0454,0.30273 0.0101,0.12112 0.0151,0.27753 0.0151,0.46924 -1e-5,0.18166 -0.0101,0.34312 -0.0303,0.48438 -0.0101,0.14129 -0.0303,0.26238 -0.0606,0.36328 -0.0303,0.0908 -0.0757,0.16147 -0.13623,0.21191 -0.0505,0.0404 -0.11102,0.0606 -0.18164,0.0605 -0.11102,2e-5 -0.28761,-0.0706 -0.52979,-0.21191 -0.2321,-0.14126 -0.5197,-0.29768 -0.86279,-0.46924 -0.34311,-0.18163 -0.7518,-0.34308 -1.22607,-0.48438 -0.46421,-0.15135 -0.98895,-0.22703 -1.57422,-0.22705 -0.54493,2e-5 -1.01922,0.0757 -1.42286,0.22705 -0.40365,0.1413 -0.73665,0.33303 -0.99902,0.5752 -0.26237,0.2422 -0.45915,0.5298 -0.59033,0.86279 -0.13119,0.33302 -0.19678,0.68621 -0.19678,1.05957 0,0.54494 0.12614,1.01418 0.37842,1.40772 0.25227,0.39356 0.58528,0.74171 0.99902,1.04443 0.42383,0.30275 0.90315,0.58025 1.43799,0.83252 0.53482,0.25229 1.07975,0.50961 1.63477,0.77197 0.555,0.25229 1.09992,0.53484 1.63476,0.84766 0.53482,0.30274 1.00911,0.66602 1.42285,1.08984 0.42382,0.41375 0.76187,0.90821 1.01416,1.4834 0.26236,0.56511 0.39355,1.23617 0.39356,2.01318"
         id="path3776"
         style="font-size:31px;line-height:180.99999428%;letter-spacing:0.25999999px" />
      <path
         d="m 294.42015,777.56175 c -2e-5,1.58432 -0.1867,3.01222 -0.56006,4.2837 -0.37339,1.27149 -0.93345,2.35628 -1.68017,3.25439 -0.73667,0.88802 -1.66506,1.57422 -2.78516,2.05859 -1.12013,0.47429 -2.42693,0.71143 -3.92041,0.71143 -1.47332,0 -2.74984,-0.21696 -3.82959,-0.65088 -1.06967,-0.44401 -1.95769,-1.0848 -2.66406,-1.92236 -0.69629,-0.83756 -1.21599,-1.87695 -1.55908,-3.11817 -0.34311,-1.2412 -0.51465,-2.6691 -0.51465,-4.28369 0,-1.54393 0.18668,-2.9466 0.56006,-4.20801 0.37337,-1.26137 0.93342,-2.33103 1.68017,-3.20898 0.74674,-0.888 1.68017,-1.56915 2.80029,-2.04346 1.12011,-0.48435 2.42692,-0.72654 3.92041,-0.72656 1.44303,2e-5 2.69937,0.21698 3.76905,0.65088 1.06964,0.43394 1.95766,1.06968 2.66406,1.90723 0.71645,0.82749 1.24624,1.85678 1.58936,3.08789 0.35317,1.22104 0.52976,2.62371 0.52978,4.208 m -2.73975,0.18165 c -1e-5,-1.11002 -0.10092,-2.13932 -0.30273,-3.0879 -0.19175,-0.95864 -0.51971,-1.78611 -0.98389,-2.48242 -0.45411,-0.70636 -1.06463,-1.25633 -1.83154,-1.6499 -0.76694,-0.39354 -1.71551,-0.59031 -2.8457,-0.59033 -1.13022,2e-5 -2.07879,0.21193 -2.84571,0.63574 -0.76693,0.42385 -1.39258,0.98895 -1.87695,1.69531 -0.47429,0.7064 -0.81739,1.53387 -1.0293,2.48243 -0.20182,0.93848 -0.30273,1.92742 -0.30273,2.96679 0,1.1504 0.0959,2.20997 0.2876,3.17871 0.19172,0.96876 0.51464,1.80632 0.96875,2.5127 0.45409,0.69629 1.05956,1.24121 1.8164,1.63476 0.76692,0.38347 1.72558,0.5752 2.87598,0.5752 1.14029,0 2.09895,-0.21191 2.87598,-0.63574 0.777,-0.42383 1.40265,-0.99398 1.87695,-1.71045 0.47427,-0.72656 0.81232,-1.56412 1.01416,-2.5127 0.20181,-0.94856 0.30272,-1.95263 0.30273,-3.0122"
         id="path3778"
         style="font-size:31px;line-height:180.99999428%;letter-spacing:0.25999999px" />
      <path
         d="m 317.24899,787.00707 c -0.0404,0.14127 -0.10093,0.25732 -0.18164,0.34814 -0.0807,0.0807 -0.19175,0.14632 -0.33301,0.19678 -0.14129,0.0404 -0.31789,0.0706 -0.52978,0.0908 -0.20184,0.0202 -0.45412,0.0303 -0.75684,0.0303 -0.31284,0 -0.58026,-0.0101 -0.80224,-0.0303 -0.21194,-0.0202 -0.38853,-0.0505 -0.52979,-0.0908 -0.14129,-0.0505 -0.24725,-0.11605 -0.31787,-0.19678 -0.0707,-0.0908 -0.12616,-0.20687 -0.1665,-0.34814 l -4.10205,-14.78858 -0.0303,0 -3.78418,14.78858 c -0.0303,0.14127 -0.0807,0.25732 -0.15136,0.34814 -0.0707,0.0807 -0.17156,0.14632 -0.30274,0.19678 -0.13119,0.0404 -0.30274,0.0706 -0.51465,0.0908 -0.20183,0.0202 -0.4642,0.0303 -0.78711,0.0303 -0.33301,0 -0.61052,-0.0101 -0.83252,-0.0303 -0.22201,-0.0202 -0.40365,-0.0505 -0.54492,-0.0908 -0.14128,-0.0505 -0.25228,-0.11605 -0.33301,-0.19678 -0.0706,-0.0908 -0.1211,-0.20687 -0.15136,-0.34814 l -5.17676,-18.08838 c -0.0606,-0.23208 -0.0959,-0.41372 -0.10596,-0.54492 0,-0.13117 0.0404,-0.23208 0.1211,-0.30274 0.0908,-0.0706 0.23209,-0.11603 0.42382,-0.13623 0.19173,-0.0202 0.44906,-0.0303 0.77198,-0.0303 0.31282,2e-5 0.56005,0.0101 0.7417,0.0303 0.18163,0.0101 0.31786,0.0353 0.40869,0.0757 0.10091,0.0404 0.1665,0.0959 0.19678,0.1665 0.0404,0.0707 0.0706,0.16148 0.0908,0.27246 l 4.40478,16.4082 0.0151,0 4.17773,-16.37793 c 0.0303,-0.11098 0.0656,-0.2018 0.10596,-0.27246 0.0504,-0.0807 0.12613,-0.14125 0.22705,-0.18164 0.1009,-0.0403 0.24217,-0.0706 0.42383,-0.0908 0.19172,-0.0202 0.43895,-0.0303 0.7417,-0.0303 0.28253,2e-5 0.50454,0.0101 0.66601,0.0303 0.17154,0.0202 0.30777,0.0505 0.40869,0.0908 0.1009,0.0404 0.17154,0.10093 0.21192,0.18164 0.0504,0.0707 0.0908,0.16148 0.12109,0.27246 l 4.49561,16.37793 0.0303,0 4.31397,-16.39306 c 0.0302,-0.1009 0.0605,-0.18667 0.0908,-0.25733 0.0303,-0.0807 0.0908,-0.14125 0.18164,-0.18164 0.10088,-0.0403 0.23711,-0.0706 0.40869,-0.0908 0.18161,-0.0202 0.41876,-0.0303 0.71142,-0.0303 0.30271,2e-5 0.53985,0.0151 0.71143,0.0454 0.18161,0.0202 0.3128,0.0656 0.39355,0.13623 0.0807,0.0707 0.11603,0.17157 0.10596,0.30273 -3e-5,0.13121 -0.0253,0.31285 -0.0757,0.54493 l -5.1919,18.07324"
         id="path3780"
         style="font-size:31px;line-height:180.99999428%;letter-spacing:0.25999999px" />
      <path
         d="m 339.63889,786.65892 c 0.0807,0.22201 0.12107,0.40365 0.12109,0.54492 0.0101,0.13119 -0.0252,0.2321 -0.10596,0.30274 -0.0807,0.0706 -0.21697,0.11605 -0.40869,0.13623 -0.18166,0.0202 -0.42889,0.0303 -0.7417,0.0303 -0.31284,0 -0.56512,-0.0101 -0.75683,-0.0303 -0.18166,-0.0101 -0.32294,-0.0303 -0.42383,-0.0606 -0.0908,-0.0404 -0.16148,-0.0908 -0.21192,-0.15136 -0.0404,-0.0605 -0.0807,-0.13623 -0.12109,-0.22706 l -1.68018,-4.76806 -8.14355,0 -1.60449,4.70752 c -0.0303,0.0908 -0.0706,0.17155 -0.1211,0.24219 -0.0505,0.0605 -0.12614,0.11604 -0.22705,0.1665 -0.0908,0.0404 -0.22705,0.0706 -0.40869,0.0908 -0.17155,0.0202 -0.3986,0.0303 -0.68115,0.0303 -0.29265,0 -0.53483,-0.0151 -0.72656,-0.0454 -0.18165,-0.0202 -0.31283,-0.0656 -0.39356,-0.13623 -0.0706,-0.0706 -0.10596,-0.17155 -0.10596,-0.30273 0.0101,-0.14128 0.0555,-0.32292 0.13624,-0.54492 l 6.56933,-18.19434 c 0.0404,-0.11098 0.0908,-0.2018 0.15137,-0.27246 0.0706,-0.0706 0.16649,-0.12612 0.2876,-0.1665 0.13117,-0.0403 0.29263,-0.0656 0.48437,-0.0757 0.20182,-0.0202 0.45409,-0.0303 0.75684,-0.0303 0.3229,2e-5 0.59032,0.0101 0.80224,0.0303 0.21191,0.0101 0.38346,0.0353 0.51465,0.0757 0.13118,0.0404 0.23209,0.10093 0.30274,0.18164 0.0706,0.0707 0.12612,0.16147 0.1665,0.27246 l 6.56934,18.19433 m -8.43116,-16.06006 -0.0151,0 -3.37549,9.76319 6.81152,0 -3.4209,-9.76319"
         id="path3782"
         style="font-size:31px;line-height:180.99999428%;letter-spacing:0.25999999px" />
      <path
         d="m 363.2121,787.15843 c -2e-5,0.0807 -0.0202,0.15642 -0.0606,0.22706 -0.0303,0.0605 -0.0959,0.111 -0.19678,0.15136 -0.10092,0.0404 -0.23715,0.0706 -0.40869,0.0908 -0.17156,0.0303 -0.39357,0.0454 -0.66601,0.0454 -0.35321,0 -0.64081,-0.0151 -0.8628,-0.0454 -0.22202,-0.0303 -0.38852,-0.0858 -0.49951,-0.1665 -0.11101,-0.0807 -0.20183,-0.17155 -0.27246,-0.27246 l -7.20508,-9.79346 0,9.79346 c 0,0.0706 -0.0202,0.14127 -0.0605,0.21191 -0.0404,0.0606 -0.11101,0.111 -0.21192,0.15137 -0.10092,0.0303 -0.23715,0.0555 -0.40869,0.0757 -0.16146,0.0303 -0.36833,0.0454 -0.62061,0.0454 -0.24219,0 -0.44906,-0.0151 -0.6206,-0.0454 -0.17155,-0.0202 -0.30778,-0.0454 -0.40869,-0.0757 -0.10092,-0.0404 -0.17155,-0.0908 -0.21192,-0.15137 -0.0404,-0.0706 -0.0606,-0.14127 -0.0605,-0.21191 l 0,-18.79981 c -10e-6,-0.0807 0.0202,-0.15134 0.0605,-0.21191 0.0404,-0.0605 0.111,-0.10594 0.21192,-0.13623 0.10091,-0.0403 0.23714,-0.0706 0.40869,-0.0908 0.17154,-0.0303 0.37841,-0.0454 0.6206,-0.0454 0.25228,2e-5 0.45915,0.0151 0.62061,0.0454 0.17154,0.0202 0.30777,0.0505 0.40869,0.0908 0.10091,0.0303 0.17155,0.0757 0.21192,0.13623 0.0404,0.0606 0.0605,0.1312 0.0605,0.21191 l 0,8.70362 6.93262,-8.70362 c 0.0605,-0.0908 0.13117,-0.16648 0.21191,-0.22705 0.0807,-0.0605 0.17659,-0.10593 0.2876,-0.13623 0.12108,-0.0403 0.26236,-0.0706 0.42383,-0.0908 0.17154,-0.0202 0.38849,-0.0303 0.65088,-0.0303 0.26235,2e-5 0.47427,0.0151 0.63574,0.0454 0.16144,0.0202 0.28758,0.0505 0.37842,0.0908 0.10089,0.0404 0.16649,0.0908 0.19678,0.15137 0.0404,0.0606 0.0605,0.12615 0.0605,0.19677 -10e-6,0.13121 -0.0353,0.26239 -0.10595,0.39356 -0.0606,0.1312 -0.18166,0.31284 -0.36329,0.54492 l -6.49365,7.76514 6.99317,9.29394 c 0.17153,0.26237 0.27244,0.44401 0.30273,0.54492 0.0403,0.0908 0.0605,0.16651 0.0606,0.22705"
         id="path3784"
         style="font-size:31px;line-height:180.99999428%;letter-spacing:0.25999999px" />
      <path
         d="m 377.08002,782.08763 c -2e-5,0.9183 -0.17157,1.73568 -0.51465,2.45215 -0.33302,0.71648 -0.80226,1.32699 -1.40772,1.83155 -0.59538,0.49446 -1.30176,0.86783 -2.11914,1.12011 -0.8073,0.25228 -1.68018,0.37842 -2.61865,0.37842 -0.65593,0 -1.26644,-0.0555 -1.83154,-0.1665 -0.55502,-0.11101 -1.05453,-0.24724 -1.49854,-0.40869 -0.43392,-0.16146 -0.80225,-0.32797 -1.10498,-0.49952 -0.29264,-0.17155 -0.49951,-0.31787 -0.6206,-0.43896 -0.11101,-0.12109 -0.19678,-0.27246 -0.25733,-0.4541 -0.0505,-0.19173 -0.0757,-0.44401 -0.0757,-0.75684 0,-0.222 0.0101,-0.40364 0.0303,-0.54492 0.0202,-0.15136 0.0505,-0.27246 0.0908,-0.36328 0.0404,-0.0908 0.0908,-0.15137 0.15137,-0.18164 0.0605,-0.0404 0.13118,-0.0606 0.21191,-0.0606 0.14128,0 0.33806,0.0858 0.59034,0.25732 0.26236,0.17156 0.59537,0.35824 0.99902,0.56006 0.40364,0.20183 0.88802,0.39356 1.45312,0.5752 0.57519,0.17155 1.23616,0.25732 1.98291,0.25732 0.5651,0 1.07975,-0.0757 1.54395,-0.22705 0.47428,-0.15136 0.87792,-0.36328 1.21094,-0.63574 0.34309,-0.28255 0.60546,-0.62565 0.78711,-1.0293 0.18163,-0.40364 0.27245,-0.86279 0.27246,-1.37744 -10e-6,-0.55501 -0.12615,-1.02929 -0.37842,-1.42285 -0.25229,-0.39355 -0.5853,-0.73665 -0.99902,-1.0293 -0.41375,-0.30272 -0.88803,-0.57518 -1.42286,-0.81738 -0.52474,-0.25227 -1.06462,-0.50455 -1.61962,-0.75684 -0.55502,-0.26236 -1.0949,-0.54995 -1.61963,-0.86279 -0.52475,-0.31281 -0.99398,-0.68114 -1.40772,-1.10498 -0.41374,-0.42382 -0.75179,-0.91828 -1.01416,-1.4834 -0.25228,-0.57518 -0.37842,-1.26138 -0.37842,-2.05859 0,-0.81737 0.14632,-1.54393 0.43897,-2.17969 0.30273,-0.64581 0.71647,-1.18569 1.24121,-1.61963 0.53483,-0.4339 1.16552,-0.76186 1.89209,-0.98388 0.73665,-0.23208 1.5288,-0.34813 2.37646,-0.34815 0.43392,2e-5 0.86783,0.0404 1.30176,0.12109 0.444,0.0707 0.85774,0.17157 1.24121,0.30274 0.39355,0.12111 0.74169,0.26239 1.04444,0.42383 0.30272,0.15138 0.4995,0.27752 0.59033,0.37842 0.1009,0.0908 0.16649,0.16652 0.19678,0.22705 0.0303,0.0505 0.0555,0.12111 0.0757,0.21191 0.0202,0.0807 0.0353,0.18166 0.0454,0.30273 0.0101,0.12112 0.0151,0.27753 0.0151,0.46924 -2e-5,0.18166 -0.0101,0.34312 -0.0303,0.48438 -0.0101,0.14129 -0.0303,0.26238 -0.0605,0.36328 -0.0303,0.0908 -0.0757,0.16147 -0.13623,0.21191 -0.0505,0.0404 -0.11102,0.0606 -0.18164,0.0605 -0.11102,2e-5 -0.28761,-0.0706 -0.52979,-0.21191 -0.23211,-0.14126 -0.5197,-0.29768 -0.86279,-0.46924 -0.34311,-0.18163 -0.7518,-0.34308 -1.22608,-0.48438 -0.4642,-0.15135 -0.98894,-0.22703 -1.57422,-0.22705 -0.54492,2e-5 -1.01921,0.0757 -1.42285,0.22705 -0.40365,0.1413 -0.73666,0.33303 -0.99902,0.5752 -0.26238,0.2422 -0.45915,0.5298 -0.59033,0.86279 -0.13119,0.33302 -0.19678,0.68621 -0.19678,1.05957 0,0.54494 0.12613,1.01418 0.37842,1.40772 0.25227,0.39356 0.58528,0.74171 0.99902,1.04443 0.42382,0.30275 0.90315,0.58025 1.43799,0.83252 0.53482,0.25229 1.07974,0.50961 1.63477,0.77197 0.555,0.25229 1.09992,0.53484 1.63476,0.84766 0.53482,0.30274 1.0091,0.66602 1.42285,1.08984 0.42382,0.41375 0.76187,0.90821 1.01416,1.4834 0.26236,0.56511 0.39354,1.23617 0.39356,2.01318"
         id="path3786"
         style="font-size:31px;line-height:180.99999428%;letter-spacing:0.25999999px" />
      <path
         d="m 383.65202,787.18871 c 0,0.0807 -0.0202,0.15137 -0.0605,0.21191 -0.0404,0.0606 -0.11101,0.111 -0.21192,0.15137 -0.10091,0.0303 -0.23714,0.0555 -0.40869,0.0757 -0.16146,0.0303 -0.36833,0.0454 -0.6206,0.0454 -0.2422,0 -0.44906,-0.0151 -0.62061,-0.0454 -0.17155,-0.0202 -0.30778,-0.0454 -0.40869,-0.0757 -0.10092,-0.0404 -0.17155,-0.0908 -0.21192,-0.15137 -0.0404,-0.0605 -0.0605,-0.13118 -0.0605,-0.21191 l 0,-18.79981 c 0,-0.0807 0.0202,-0.15134 0.0605,-0.21191 0.0505,-0.0605 0.12614,-0.10594 0.22706,-0.13623 0.11099,-0.0403 0.24723,-0.0706 0.40869,-0.0908 0.17154,-0.0303 0.37337,-0.0454 0.60547,-0.0454 0.25227,2e-5 0.45914,0.0151 0.6206,0.0454 0.17155,0.0202 0.30778,0.0505 0.40869,0.0908 0.10091,0.0303 0.17155,0.0757 0.21192,0.13623 0.0404,0.0606 0.0605,0.1312 0.0605,0.21191 l 0,18.79981"
         id="path3788"
         style="font-size:31px;line-height:180.99999428%;letter-spacing:0.25999999px" />
      <path
         d="m 400.62296,791.98705 c -2e-5,0.15136 -0.0101,0.27245 -0.0303,0.36328 -0.0202,0.0908 -0.0505,0.1665 -0.0908,0.22705 -0.0303,0.0706 -0.0807,0.12109 -0.15137,0.15137 -0.0606,0.0404 -0.19679,0.0858 -0.40869,0.13623 -0.21192,0.0605 -0.48943,0.11604 -0.83252,0.1665 -0.33302,0.0505 -0.71143,0.0757 -1.13525,0.0757 -0.4743,-10e-6 -0.89812,-0.0505 -1.27148,-0.15137 -0.3633,-0.0908 -0.67612,-0.2321 -0.93848,-0.42383 -0.26238,-0.19174 -0.45916,-0.42888 -0.59033,-0.71143 -0.1312,-0.28255 -0.19679,-0.61556 -0.19678,-0.99902 -1e-5,-0.35319 0.0807,-0.71647 0.24219,-1.08984 0.16145,-0.37338 0.45409,-0.77702 0.87793,-1.21094 l 0.93847,-0.93848 -6.94775,0 c -0.2321,0 -0.45411,-0.0757 -0.66602,-0.22705 -0.20182,-0.16146 -0.30273,-0.43896 -0.30273,-0.83252 l 0,-17.46777 c 0,-0.39354 0.10091,-0.666 0.30273,-0.81738 0.21191,-0.16144 0.43392,-0.24217 0.66602,-0.24219 l 9.29394,0 c 0.0807,2e-5 0.15136,0.0202 0.21192,0.0605 0.0706,0.0404 0.12612,0.10597 0.1665,0.19677 0.0403,0.0908 0.0706,0.20689 0.0908,0.34815 0.0303,0.1312 0.0454,0.2977 0.0454,0.49951 -1e-5,0.18166 -0.0152,0.34312 -0.0454,0.48437 -0.0202,0.13121 -0.0505,0.24221 -0.0908,0.33301 -0.0404,0.0807 -0.0959,0.1413 -0.1665,0.18164 -0.0606,0.0404 -0.1312,0.0606 -0.21192,0.0606 l -7.65918,0 0,6.14551 6.56934,0 c 0.0807,10e-6 0.15136,0.0202 0.21191,0.0605 0.0706,0.0404 0.12613,0.10093 0.16651,0.18164 0.0504,0.0707 0.0858,0.17157 0.10596,0.30274 0.0202,0.13119 0.0303,0.29265 0.0303,0.48437 -10e-6,0.20184 -0.0101,0.36834 -0.0303,0.49952 -0.0202,0.13119 -0.0555,0.24219 -0.10596,0.333 -0.0404,0.0807 -0.0959,0.14129 -0.16651,0.18164 -0.0605,0.0404 -0.13119,0.0606 -0.21191,0.0606 l -6.56934,0 0,7.0083 7.76514,0 c 0.17154,0 0.30272,0.0807 0.39356,0.24219 0.0908,0.16146 0.13621,0.42383 0.13623,0.78711 -2e-5,0.14128 -0.005,0.27246 -0.0151,0.39355 -0.0101,0.1211 -0.0303,0.22705 -0.0605,0.31787 -0.0202,0.0908 -0.0555,0.1766 -0.10595,0.25733 -0.0404,0.0807 -0.0959,0.15641 -0.16651,0.22705 l -1.6499,1.63477 c -0.21193,0.23209 -0.36329,0.43391 -0.4541,0.60546 -0.0807,0.18164 -0.12111,0.36328 -0.1211,0.54493 -10e-6,0.27245 0.0908,0.47428 0.27247,0.60546 0.18162,0.13119 0.46922,0.19678 0.86279,0.19678 l 1.61963,0 c 0.0706,0 0.13117,0.0101 0.18164,0.0303 0.0605,0.0202 0.10594,0.0555 0.13623,0.10595 0.0303,0.0606 0.0555,0.13623 0.0757,0.22705 0.0202,0.10091 0.0303,0.2321 0.0303,0.39356"
         id="path3790"
         style="font-size:31px;line-height:180.99999428%;letter-spacing:0.25999999px" />
      <path
         d="m 418.86539,770.65941 c -2e-5,0.19175 -0.0101,0.3633 -0.0303,0.51465 -0.0202,0.14129 -0.0505,0.26239 -0.0908,0.36328 -0.0404,0.0908 -0.0908,0.15643 -0.15136,0.19678 -0.0606,0.0404 -0.12616,0.0606 -0.19678,0.0606 -0.12111,10e-6 -0.32293,-0.0959 -0.60547,-0.2876 -0.28257,-0.19172 -0.66099,-0.40363 -1.13525,-0.63574 -0.4743,-0.23208 -1.04445,-0.444 -1.71045,-0.63575 -0.65594,-0.19171 -1.438,-0.28758 -2.34619,-0.28759 -1.07977,10e-6 -2.04852,0.19679 -2.90625,0.59033 -0.85776,0.39357 -1.58432,0.93849 -2.17969,1.63476 -0.59539,0.69631 -1.05453,1.52378 -1.37744,2.48242 -0.31283,0.95868 -0.46925,1.99806 -0.46924,3.11817 -1e-5,1.25131 0.17154,2.36133 0.51465,3.33008 0.35318,0.96875 0.83756,1.78613 1.45312,2.45215 0.61555,0.66601 1.34716,1.17057 2.19483,1.51367 0.85773,0.3431 1.79621,0.51465 2.81543,0.51465 0.60545,0 1.21597,-0.0706 1.83154,-0.21192 0.62564,-0.15136 1.20588,-0.37337 1.74072,-0.66601 l 0,-5.70655 -4.54101,0 c -0.17156,1e-5 -0.30275,-0.0858 -0.39356,-0.25732 -0.0807,-0.17154 -0.1211,-0.43896 -0.12109,-0.80225 -10e-6,-0.19172 0.0101,-0.35318 0.0303,-0.48437 0.0202,-0.14127 0.0504,-0.25227 0.0908,-0.33301 0.0505,-0.0908 0.10595,-0.1564 0.1665,-0.19678 0.0605,-0.0403 0.13623,-0.0605 0.22706,-0.0605 l 6.22119,0 c 0.11098,1e-5 0.22199,0.0202 0.333,0.0605 0.11099,0.0404 0.2119,0.10092 0.30274,0.18164 0.0908,0.0807 0.16144,0.19175 0.21191,0.33301 0.0504,0.14129 0.0757,0.30275 0.0757,0.48438 l 0,7.4624 c -2e-5,0.26237 -0.0454,0.48942 -0.13623,0.68115 -0.0908,0.19173 -0.28257,0.36328 -0.5752,0.51465 -0.29266,0.14128 -0.67108,0.29769 -1.13525,0.46924 -0.46421,0.17155 -0.94354,0.31787 -1.43799,0.43896 -0.49448,0.1211 -0.99399,0.21192 -1.49854,0.27246 -0.50457,0.0605 -1.00408,0.0908 -1.49853,0.0908 -1.51368,0 -2.8659,-0.23209 -4.05664,-0.69629 -1.19076,-0.47428 -2.19988,-1.14534 -3.02735,-2.01318 -0.81738,-0.86783 -1.44303,-1.90722 -1.87695,-3.11816 -0.43392,-1.21093 -0.65088,-2.56315 -0.65088,-4.05664 0,-1.55403 0.2321,-2.96174 0.69629,-4.22315 0.47428,-1.26138 1.13525,-2.33608 1.98291,-3.22412 0.85774,-0.888 1.88199,-1.5742 3.07276,-2.05859 1.20083,-0.49445 2.52782,-0.74168 3.98095,-0.7417 0.74674,2e-5 1.44807,0.0656 2.10401,0.19678 0.65591,0.1312 1.23615,0.28761 1.74072,0.46923 0.51463,0.17157 0.94351,0.3633 1.28662,0.5752 0.35317,0.20184 0.59536,0.36834 0.72656,0.49951 0.13117,0.1312 0.22199,0.28257 0.27246,0.4541 0.0504,0.17157 0.0757,0.4188 0.0757,0.7417"
         id="path3792"
         style="font-size:31px;line-height:180.99999428%;letter-spacing:0.25999999px" />
      <path
         d="m 440.37735,777.56175 c -2e-5,1.58432 -0.18671,3.01222 -0.56006,4.2837 -0.37339,1.27149 -0.93345,2.35628 -1.68017,3.25439 -0.73667,0.88802 -1.66506,1.57422 -2.78516,2.05859 -1.12013,0.47429 -2.42693,0.71143 -3.92041,0.71143 -1.47332,0 -2.74985,-0.21696 -3.82959,-0.65088 -1.06967,-0.44401 -1.95769,-1.0848 -2.66406,-1.92236 -0.6963,-0.83756 -1.21599,-1.87695 -1.55909,-3.11817 -0.3431,-1.2412 -0.51465,-2.6691 -0.51464,-4.28369 -10e-6,-1.54393 0.18668,-2.9466 0.56005,-4.20801 0.37337,-1.26137 0.93343,-2.33103 1.68018,-3.20898 0.74674,-0.888 1.68017,-1.56915 2.80029,-2.04346 1.12011,-0.48435 2.42692,-0.72654 3.92041,-0.72656 1.44303,2e-5 2.69937,0.21698 3.76905,0.65088 1.06964,0.43394 1.95766,1.06968 2.66406,1.90723 0.71645,0.82749 1.24624,1.85678 1.58935,3.08789 0.35318,1.22104 0.52977,2.62371 0.52979,4.208 m -2.73975,0.18165 c -1e-5,-1.11002 -0.10092,-2.13932 -0.30273,-3.0879 -0.19175,-0.95864 -0.51971,-1.78611 -0.98389,-2.48242 -0.45411,-0.70636 -1.06463,-1.25633 -1.83154,-1.6499 -0.76694,-0.39354 -1.71551,-0.59031 -2.8457,-0.59033 -1.13022,2e-5 -2.07879,0.21193 -2.84571,0.63574 -0.76693,0.42385 -1.39258,0.98895 -1.87695,1.69531 -0.47429,0.7064 -0.81739,1.53387 -1.0293,2.48243 -0.20182,0.93848 -0.30274,1.92742 -0.30273,2.96679 -1e-5,1.1504 0.0959,2.20997 0.2876,3.17871 0.19172,0.96876 0.51464,1.80632 0.96875,2.5127 0.45409,0.69629 1.05956,1.24121 1.8164,1.63476 0.76692,0.38347 1.72558,0.5752 2.87598,0.5752 1.14029,0 2.09895,-0.21191 2.87598,-0.63574 0.777,-0.42383 1.40265,-0.99398 1.87695,-1.71045 0.47427,-0.72656 0.81232,-1.56412 1.01416,-2.5127 0.20181,-0.94856 0.30272,-1.95263 0.30273,-3.0122"
         id="path3794"
         style="font-size:31px;line-height:180.99999428%;letter-spacing:0.25999999px" />
      <path
         d="m 463.20618,787.00707 c -0.0404,0.14127 -0.10094,0.25732 -0.18164,0.34814 -0.0808,0.0807 -0.19176,0.14632 -0.33301,0.19678 -0.1413,0.0404 -0.31789,0.0706 -0.52979,0.0908 -0.20184,0.0202 -0.45412,0.0303 -0.75683,0.0303 -0.31285,0 -0.58026,-0.0101 -0.80225,-0.0303 -0.21193,-0.0202 -0.38853,-0.0505 -0.52978,-0.0908 -0.1413,-0.0505 -0.24726,-0.11605 -0.31788,-0.19678 -0.0707,-0.0908 -0.12615,-0.20687 -0.1665,-0.34814 l -4.10205,-14.78858 -0.0303,0 -3.78418,14.78858 c -0.0303,0.14127 -0.0807,0.25732 -0.15137,0.34814 -0.0707,0.0807 -0.17156,0.14632 -0.30273,0.19678 -0.1312,0.0404 -0.30275,0.0706 -0.51465,0.0908 -0.20183,0.0202 -0.4642,0.0303 -0.78711,0.0303 -0.33302,0 -0.61052,-0.0101 -0.83252,-0.0303 -0.22201,-0.0202 -0.40365,-0.0505 -0.54492,-0.0908 -0.14129,-0.0505 -0.25229,-0.11605 -0.33301,-0.19678 -0.0707,-0.0908 -0.1211,-0.20687 -0.15137,-0.34814 l -5.17676,-18.08838 c -0.0605,-0.23208 -0.0959,-0.41372 -0.10595,-0.54492 0,-0.13117 0.0404,-0.23208 0.12109,-0.30274 0.0908,-0.0706 0.2321,-0.11603 0.42383,-0.13623 0.19173,-0.0202 0.44905,-0.0303 0.77197,-0.0303 0.31282,2e-5 0.56006,0.0101 0.7417,0.0303 0.18164,0.0101 0.31787,0.0353 0.40869,0.0757 0.10091,0.0404 0.1665,0.0959 0.19678,0.1665 0.0404,0.0707 0.0706,0.16148 0.0908,0.27246 l 4.40478,16.4082 0.0151,0 4.17774,-16.37793 c 0.0303,-0.11098 0.0656,-0.2018 0.10595,-0.27246 0.0505,-0.0807 0.12613,-0.14125 0.22705,-0.18164 0.1009,-0.0403 0.24218,-0.0706 0.42383,-0.0908 0.19172,-0.0202 0.43895,-0.0303 0.7417,-0.0303 0.28254,2e-5 0.50454,0.0101 0.66602,0.0303 0.17153,0.0202 0.30776,0.0505 0.40869,0.0908 0.10089,0.0404 0.17153,0.10093 0.21191,0.18164 0.0504,0.0707 0.0908,0.16148 0.1211,0.27246 l 4.4956,16.37793 0.0303,0 4.31397,-16.39306 c 0.0302,-0.1009 0.0605,-0.18667 0.0908,-0.25733 0.0303,-0.0807 0.0908,-0.14125 0.18164,-0.18164 0.10089,-0.0403 0.23712,-0.0706 0.40869,-0.0908 0.18162,-0.0202 0.41876,-0.0303 0.71143,-0.0303 0.30271,2e-5 0.53985,0.0151 0.71142,0.0454 0.18162,0.0202 0.3128,0.0656 0.39356,0.13623 0.0807,0.0707 0.11602,0.17157 0.10595,0.30273 -2e-5,0.13121 -0.0252,0.31285 -0.0757,0.54493 l -5.19189,18.07324"
         id="path3796"
         style="font-size:31px;line-height:180.99999428%;letter-spacing:0.25999999px" />
      <path
         d="m 488.42664,777.56175 c -2e-5,1.58432 -0.18671,3.01222 -0.56006,4.2837 -0.37339,1.27149 -0.93345,2.35628 -1.68018,3.25439 -0.73667,0.88802 -1.66505,1.57422 -2.78515,2.05859 -1.12013,0.47429 -2.42694,0.71143 -3.92042,0.71143 -1.47331,0 -2.74984,-0.21696 -3.82958,-0.65088 -1.06967,-0.44401 -1.95769,-1.0848 -2.66407,-1.92236 -0.69629,-0.83756 -1.21598,-1.87695 -1.55908,-3.11817 -0.3431,-1.2412 -0.51465,-2.6691 -0.51465,-4.28369 0,-1.54393 0.18669,-2.9466 0.56006,-4.20801 0.37337,-1.26137 0.93343,-2.33103 1.68018,-3.20898 0.74674,-0.888 1.68017,-1.56915 2.80029,-2.04346 1.12011,-0.48435 2.42691,-0.72654 3.92041,-0.72656 1.44302,2e-5 2.69937,0.21698 3.76904,0.65088 1.06965,0.43394 1.95767,1.06968 2.66407,1.90723 0.71645,0.82749 1.24623,1.85678 1.58935,3.08789 0.35317,1.22104 0.52977,2.62371 0.52979,4.208 m -2.73975,0.18165 c -2e-5,-1.11002 -0.10093,-2.13932 -0.30273,-3.0879 -0.19175,-0.95864 -0.51971,-1.78611 -0.98389,-2.48242 -0.45412,-0.70636 -1.06463,-1.25633 -1.83154,-1.6499 -0.76694,-0.39354 -1.71551,-0.59031 -2.84571,-0.59033 -1.13022,2e-5 -2.07878,0.21193 -2.8457,0.63574 -0.76693,0.42385 -1.39258,0.98895 -1.87695,1.69531 -0.47429,0.7064 -0.81739,1.53387 -1.0293,2.48243 -0.20183,0.93848 -0.30274,1.92742 -0.30274,2.96679 0,1.1504 0.0959,2.20997 0.2876,3.17871 0.19173,0.96876 0.51465,1.80632 0.96875,2.5127 0.4541,0.69629 1.05957,1.24121 1.81641,1.63476 0.76692,0.38347 1.72558,0.5752 2.87598,0.5752 1.14028,0 2.09894,-0.21191 2.87597,-0.63574 0.77701,-0.42383 1.40266,-0.99398 1.87696,-1.71045 0.47426,-0.72656 0.81232,-1.56412 1.01416,-2.5127 0.2018,-0.94856 0.30271,-1.95263 0.30273,-3.0122"
         id="path3798"
         style="font-size:31px;line-height:180.99999428%;letter-spacing:0.25999999px" />
      <path
         d="m 503.32385,782.08763 c -10e-6,0.9183 -0.17156,1.73568 -0.51465,2.45215 -0.33302,0.71648 -0.80225,1.32699 -1.40771,1.83155 -0.59539,0.49446 -1.30177,0.86783 -2.11914,1.12011 -0.8073,0.25228 -1.68018,0.37842 -2.61865,0.37842 -0.65593,0 -1.26645,-0.0555 -1.83155,-0.1665 -0.55501,-0.11101 -1.05452,-0.24724 -1.49853,-0.40869 -0.43392,-0.16146 -0.80225,-0.32797 -1.10498,-0.49952 -0.29265,-0.17155 -0.49952,-0.31787 -0.62061,-0.43896 -0.111,-0.12109 -0.19678,-0.27246 -0.25732,-0.4541 -0.0505,-0.19173 -0.0757,-0.44401 -0.0757,-0.75684 0,-0.222 0.0101,-0.40364 0.0303,-0.54492 0.0202,-0.15136 0.0505,-0.27246 0.0908,-0.36328 0.0404,-0.0908 0.0908,-0.15137 0.15137,-0.18164 0.0605,-0.0404 0.13118,-0.0606 0.21191,-0.0606 0.14127,0 0.33805,0.0858 0.59033,0.25732 0.26237,0.17156 0.59538,0.35824 0.99902,0.56006 0.40365,0.20183 0.88802,0.39356 1.45313,0.5752 0.57519,0.17155 1.23616,0.25732 1.98291,0.25732 0.5651,0 1.07974,-0.0757 1.54395,-0.22705 0.47427,-0.15136 0.87792,-0.36328 1.21093,-0.63574 0.34309,-0.28255 0.60546,-0.62565 0.78711,-1.0293 0.18163,-0.40364 0.27245,-0.86279 0.27246,-1.37744 -10e-6,-0.55501 -0.12615,-1.02929 -0.37841,-1.42285 -0.25229,-0.39355 -0.5853,-0.73665 -0.99903,-1.0293 -0.41374,-0.30272 -0.88803,-0.57518 -1.42285,-0.81738 -0.52475,-0.25227 -1.06462,-0.50455 -1.61963,-0.75684 -0.55502,-0.26236 -1.09489,-0.54995 -1.61963,-0.86279 -0.52474,-0.31281 -0.99398,-0.68114 -1.40771,-1.10498 -0.41374,-0.42382 -0.7518,-0.91828 -1.01416,-1.4834 -0.25228,-0.57518 -0.37842,-1.26138 -0.37842,-2.05859 0,-0.81737 0.14632,-1.54393 0.43896,-2.17969 0.30274,-0.64581 0.71647,-1.18569 1.24122,-1.61963 0.53482,-0.4339 1.16552,-0.76186 1.89209,-0.98388 0.73664,-0.23208 1.5288,-0.34813 2.37646,-0.34815 0.43391,2e-5 0.86783,0.0404 1.30176,0.12109 0.444,0.0707 0.85774,0.17157 1.24121,0.30274 0.39354,0.12111 0.74169,0.26239 1.04443,0.42383 0.30273,0.15138 0.4995,0.27752 0.59033,0.37842 0.1009,0.0908 0.1665,0.16652 0.19678,0.22705 0.0303,0.0505 0.0555,0.12111 0.0757,0.21191 0.0202,0.0807 0.0353,0.18166 0.0454,0.30273 0.0101,0.12112 0.0151,0.27753 0.0151,0.46924 -1e-5,0.18166 -0.0101,0.34312 -0.0303,0.48438 -0.0101,0.14129 -0.0303,0.26238 -0.0606,0.36328 -0.0303,0.0908 -0.0757,0.16147 -0.13623,0.21191 -0.0505,0.0404 -0.11101,0.0606 -0.18164,0.0605 -0.11101,2e-5 -0.28761,-0.0706 -0.52978,-0.21191 -0.23211,-0.14126 -0.51971,-0.29768 -0.8628,-0.46924 -0.34311,-0.18163 -0.7518,-0.34308 -1.22607,-0.48438 -0.4642,-0.15135 -0.98894,-0.22703 -1.57422,-0.22705 -0.54493,2e-5 -1.01921,0.0757 -1.42285,0.22705 -0.40365,0.1413 -0.73666,0.33303 -0.99903,0.5752 -0.26237,0.2422 -0.45915,0.5298 -0.59033,0.86279 -0.13119,0.33302 -0.19678,0.68621 -0.19677,1.05957 -10e-6,0.54494 0.12613,1.01418 0.37841,1.40772 0.25228,0.39356 0.58528,0.74171 0.99903,1.04443 0.42382,0.30275 0.90315,0.58025 1.43798,0.83252 0.53483,0.25229 1.07975,0.50961 1.63477,0.77197 0.555,0.25229 1.09993,0.53484 1.63477,0.84766 0.53482,0.30274 1.0091,0.66602 1.42285,1.08984 0.42381,0.41375 0.76187,0.90821 1.01416,1.4834 0.26235,0.56511 0.39354,1.23617 0.39355,2.01318 m -4.08691,-19.49609 c 0.11099,-0.13116 0.21695,-0.23207 0.31787,-0.30273 0.11099,-0.0706 0.23209,-0.12612 0.36328,-0.16651 0.13118,-0.0403 0.28759,-0.0656 0.46924,-0.0757 0.18163,-0.0202 0.39859,-0.0302 0.65088,-0.0303 0.30272,3e-5 0.53986,0.0253 0.71142,0.0757 0.17154,0.0404 0.29264,0.0959 0.36329,0.1665 0.0706,0.0707 0.0908,0.15139 0.0605,0.24219 -0.0202,0.0909 -0.0757,0.18671 -0.1665,0.2876 l -3.43604,3.20898 c -0.10092,0.10093 -0.19678,0.18166 -0.28759,0.24219 -0.0807,0.0505 -0.17661,0.0959 -0.2876,0.13623 -0.11101,0.0303 -0.2422,0.0555 -0.39356,0.0757 -0.14128,0.0101 -0.31788,0.0152 -0.52978,0.0151 -0.23211,2e-5 -0.41375,-0.0101 -0.54492,-0.0303 -0.1312,-0.0303 -0.22202,-0.0706 -0.27247,-0.1211 -0.0505,-0.0605 -0.0656,-0.13116 -0.0454,-0.21191 0.0202,-0.0807 0.0757,-0.17657 0.16651,-0.2876 l 2.86084,-3.22412 m -5.04053,5.40381 0,0"
         id="path3800"
         style="font-size:31px;line-height:180.99999428%;letter-spacing:0.25999999px" />
      <path
         d="m 520.37045,784.81224 c -10e-6,0.16146 -0.005,0.30274 -0.0151,0.42383 -0.0101,0.1211 -0.0303,0.22705 -0.0606,0.31787 -0.0202,0.0908 -0.0505,0.17155 -0.0908,0.24219 -0.0404,0.0706 -0.11102,0.15641 -0.21192,0.25732 -0.10092,0.10092 -0.31284,0.25733 -0.63574,0.46924 -0.32293,0.20183 -0.72657,0.40365 -1.21093,0.60547 -0.4743,0.19173 -1.02427,0.35319 -1.64991,0.48438 -0.61557,0.14127 -1.29167,0.21191 -2.02832,0.21191 -1.27149,0 -2.42188,-0.21191 -3.45117,-0.63574 -1.01921,-0.42383 -1.89209,-1.04948 -2.61865,-1.87696 -0.71648,-0.82747 -1.27149,-1.84667 -1.66504,-3.05761 -0.38347,-1.22102 -0.5752,-2.62369 -0.5752,-4.20801 0,-1.62466 0.20687,-3.07274 0.62061,-4.34424 0.42383,-1.27147 1.01416,-2.34617 1.771,-3.22412 0.75683,-0.888 1.65998,-1.56411 2.70947,-2.02832 1.05956,-0.46417 2.23013,-0.69627 3.51172,-0.69629 0.56509,2e-5 1.11506,0.0555 1.6499,0.16651 0.53482,0.10093 1.02928,0.23211 1.4834,0.39355 0.45409,0.16148 0.85773,0.34816 1.21094,0.56006 0.35317,0.21193 0.59536,0.38853 0.72656,0.52978 0.14126,0.13121 0.23208,0.23212 0.27246,0.30274 0.0403,0.0707 0.0706,0.15643 0.0908,0.25732 0.0303,0.0908 0.0504,0.20184 0.0606,0.33301 0.0202,0.1312 0.0303,0.28761 0.0303,0.46924 -2e-5,0.20184 -0.0101,0.37339 -0.0303,0.51465 -0.0202,0.14129 -0.0505,0.26238 -0.0908,0.36328 -0.0404,0.0908 -0.0908,0.16147 -0.15137,0.21191 -0.0505,0.0404 -0.11607,0.0606 -0.19678,0.0605 -0.14129,10e-6 -0.33807,-0.0958 -0.59033,-0.2876 -0.25229,-0.20181 -0.58026,-0.41876 -0.98389,-0.65088 -0.39357,-0.24217 -0.87794,-0.45913 -1.45312,-0.65088 -0.56512,-0.2018 -1.24627,-0.30271 -2.04346,-0.30273 -0.86785,2e-5 -1.66,0.17661 -2.37646,0.52978 -0.70639,0.34312 -1.31186,0.85272 -1.81641,1.52881 -0.50456,0.67612 -0.89812,1.5036 -1.18066,2.48242 -0.27247,0.96877 -0.4087,2.07879 -0.4087,3.33008 0,1.24122 0.13118,2.34116 0.39356,3.29981 0.27245,0.94857 0.65592,1.74577 1.15039,2.3916 0.50455,0.63574 1.12011,1.12012 1.84668,1.45312 0.72655,0.32292 1.54898,0.48438 2.46728,0.48438 0.77701,0 1.45312,-0.0959 2.02832,-0.2876 0.58528,-0.19173 1.07974,-0.40364 1.4834,-0.63574 0.41373,-0.24219 0.75178,-0.45914 1.01416,-0.65088 0.26236,-0.19173 0.46923,-0.28759 0.62061,-0.2876 0.0706,10e-6 0.13117,0.0151 0.18164,0.0454 0.0504,0.0303 0.0908,0.0908 0.12109,0.18164 0.0303,0.0807 0.0504,0.19678 0.0606,0.34815 0.0202,0.15137 0.0303,0.3431 0.0303,0.57519 m -4.75293,-22.2207 c 0.11099,-0.13116 0.21695,-0.23207 0.31787,-0.30273 0.111,-0.0706 0.23209,-0.12612 0.36329,-0.16651 0.13117,-0.0403 0.28758,-0.0656 0.46923,-0.0757 0.18163,-0.0202 0.39859,-0.0302 0.65088,-0.0303 0.30272,3e-5 0.53987,0.0253 0.71143,0.0757 0.17153,0.0404 0.29263,0.0959 0.36328,0.1665 0.0706,0.0707 0.0908,0.15139 0.0605,0.24219 -0.0202,0.0909 -0.0757,0.18671 -0.16651,0.2876 l -3.43603,3.20898 c -0.10092,0.10093 -0.19679,0.18166 -0.2876,0.24219 -0.0807,0.0505 -0.1766,0.0959 -0.2876,0.13623 -0.11101,0.0303 -0.24219,0.0555 -0.39355,0.0757 -0.14129,0.0101 -0.31788,0.0152 -0.52979,0.0151 -0.2321,2e-5 -0.41374,-0.0101 -0.54492,-0.0303 -0.13119,-0.0303 -0.22201,-0.0706 -0.27246,-0.1211 -0.0505,-0.0605 -0.0656,-0.13116 -0.0454,-0.21191 0.0202,-0.0807 0.0757,-0.17657 0.1665,-0.2876 l 2.86084,-3.22412 m -5.04052,5.40381 0,0"
         id="path3802"
         style="font-size:31px;line-height:180.99999428%;letter-spacing:0.25999999px" />
    </g>
    <path
       d="m 210.6886,693.51729 379.81735,0 0,3 -379.81735,0 z"
       id="rect3328"
       style="fill:#000000;display:inline" />
  </g>
</svg>
