<?xml version="1.0" encoding="UTF-8" standalone="no"?>
<!-- Created with Inkscape (http://www.inkscape.org/) -->

<svg
   xmlns:dc="http://purl.org/dc/elements/1.1/"
   xmlns:cc="http://creativecommons.org/ns#"
   xmlns:rdf="http://www.w3.org/1999/02/22-rdf-syntax-ns#"
   xmlns:svg="http://www.w3.org/2000/svg"
   xmlns="http://www.w3.org/2000/svg"
   version="1.1"
   width="380.18024"
   height="469.31683"
   id="svg2">
  <defs
     id="defs4" />
  <metadata
     id="metadata7">
    <rdf:RDF>
      <cc:Work
         rdf:about="">
        <dc:format>image/svg+xml</dc:format>
        <dc:type
           rdf:resource="http://purl.org/dc/dcmitype/StillImage" />
        <dc:title></dc:title>
      </cc:Work>
    </rdf:RDF>
  </metadata>
  <path
     d="m 330.18793,466.8428 c -39.9724,-11.53058 -73.76561,-31.89008 -133.01801,-80.13976 l -5.35715,-4.36237 0,40.83433 0,40.83432 -74.26578,0 -74.265785,0 0.33721,-179.64285 0.33721,-179.64286 -21.73189,-46.428569 C 10.271195,32.759321 0.30691523,10.902181 0.08087523,9.7236115 c -0.76454,-3.98644 3.82615997,-1.86303 16.56018977,7.6598595 16.94933,12.67521 27.65885,17.74431 43.12853,20.4139 15.62455,2.69632 19.54386,4.64158 22.68387,11.25865 5.47096,11.52919 2.04061,23.36245 -10.50691,36.24452 -3.90013,4.00412 -6.90883,7.28021 -6.686,7.28021 0.22282,0 7.41323,-1.53313 15.97868,-3.40697 8.56544,-1.87383 21.198535,-4.22734 28.073535,-5.23002 6.875,-1.00268 12.5,-2.10916 12.5,-2.45886 0,-0.34969 -1.61998,-1.91009 -3.59997,-3.46754 -5.31637,-4.18186 -7.8286,-10.08813 -7.8286,-18.40509 0,-7.1464 0.28141,-7.66724 8.3359,-15.42809 9.48583,-9.14 13.66017,-15.87857 20.2813,-32.73978 3.17444,-8.0839395 5.31314,-11.71647954 6.7287,-11.42856954 1.14133,0.23214 4.15497,5.56492004 6.69697,11.85063954 7.1007,17.5582 9.03523,20.76383 18.15949,30.09138 4.66071,4.76454 8.97953,10.55025 9.59738,12.85714 1.57389,5.87644 -0.66101,16.26346 -4.34242,20.18216 l -3.09822,3.29789 9.89189,0.0627 c 5.44053,0.0345 14.7133,0.62164 20.60615,1.30476 5.89286,0.68312 10.90113,1.05733 11.12949,0.8316 0.22834,-0.22574 -0.92391,-2.68003 -2.56059,-5.45399 -4.7431,-8.03895 -5.83218,-13.57308 -4.05782,-20.61967 2.66002,-10.56394 7.26925,-13.81495 23.30117,-16.43494 17.00177,-2.77849 27.2898,-7.62265 45.09305,-21.23226 7.2369,-5.53221 14.03776,-9.7209595 15.11305,-9.3083395 2.14807,0.82429 2.84957,-0.85189 -21.38446,51.0962395 -7.57721,16.24251 -13.77674,30.15497 -13.77674,30.91656 0,0.76159 1.76785,1.82345 3.92857,2.35969 8.27823,2.05445 33.04793,15.181139 45.35714,24.037009 60.74943,43.70614 87.43384,113.60761 69.10013,181.01204 -3.52539,12.96117 -14.51249,36.57748 -22.35126,48.04308 -13.58714,19.8736 -32.05863,36.0673 -51.87491,45.47802 -11.51423,5.46808 -35.6833,12.17995 -43.9857,12.21505 -10.46113,0.0443 -9.71764,2.00249 4.32774,11.39883 24.73003,16.54435 52.30283,28.36147 91.53549,39.23022 9.65407,2.67448 12.21658,5.92217 9.3708,11.87638 -1.74509,3.6512 -2.50472,3.9195 -11.85059,4.18562 -6.36831,0.18133 -13.42107,-0.70656 -19.46797,-2.45087 l 0,0 z M 130.3842,420.2322 c 6.97716,-2.89785 15.5357,-11.47879 18.92586,-18.97545 3.8242,-8.45643 3.82591,-21.74597 0.004,-30.20914 -8.92028,-19.7525 -32.79971,-27.94881 -51.606035,-17.71314 -20.02684,10.89998 -25.82885,34.62235 -13.11351,53.61653 9.90865,14.80152 28.880345,20.30421 45.789775,13.2812 l -3.7e-4,0 z m 130,-34.99425 c 53.19886,-9.55458 92.02293,-51.28433 102.26943,-109.92347 4.60474,-26.35218 -0.13043,-58.57856 -12.14487,-82.65577 -18.68374,-37.4425 -47.39612,-60.37561 -86.56783,-69.14336 -14.81563,-3.31616 -43.88364,-6.64888 -57.99156,-6.64888 l -12.37727,0 -0.90654,47.5 c -0.49862,26.125 -1.05517,80.40997 -1.23682,120.63327 l -0.33025,73.13327 5.71428,5.88747 c 10.6343,10.95662 25.05716,22.12014 29.70229,22.99006 5.627,1.0538 23.2748,0.13014 33.86914,-1.77259 l 0,0 z"
     id="path3207"
     style="fill:#666666" />
</svg>
