<?xml version="1.0" encoding="UTF-8" standalone="no"?>
<!-- Created with Inkscape (http://www.inkscape.org/) -->

<svg
   xmlns:dc="http://purl.org/dc/elements/1.1/"
   xmlns:cc="http://creativecommons.org/ns#"
   xmlns:rdf="http://www.w3.org/1999/02/22-rdf-syntax-ns#"
   xmlns:svg="http://www.w3.org/2000/svg"
   xmlns="http://www.w3.org/2000/svg"
   xmlns:sodipodi="http://sodipodi.sourceforge.net/DTD/sodipodi-0.dtd"
   xmlns:inkscape="http://www.inkscape.org/namespaces/inkscape"
   version="1.1"
   width="755.71875"
   height="755.71875"
   id="svg2"
   inkscape:version="0.48.5 r10040"
   sodipodi:docname="regina-logo-round.svg">
  <sodipodi:namedview
     pagecolor="#ffffff"
     bordercolor="#666666"
     borderopacity="1"
     objecttolerance="10"
     gridtolerance="10"
     guidetolerance="10"
     inkscape:pageopacity="0"
     inkscape:pageshadow="2"
     inkscape:window-width="1392"
     inkscape:window-height="856"
     id="namedview3158"
     showgrid="false"
     fit-margin-top="0"
     fit-margin-left="0"
     fit-margin-right="0"
     fit-margin-bottom="0"
     inkscape:zoom="0.31228549"
     inkscape:cx="1280.8934"
     inkscape:cy="403.48438"
     inkscape:window-x="48"
     inkscape:window-y="0"
     inkscape:window-maximized="1"
     inkscape:current-layer="g3213" />
  <defs
     id="defs4" />
  <metadata
     id="metadata7">
    <rdf:RDF>
      <cc:Work
         rdf:about="">
        <dc:format>image/svg+xml</dc:format>
        <dc:type
           rdf:resource="http://purl.org/dc/dcmitype/StillImage" />
        <dc:title></dc:title>
      </cc:Work>
    </rdf:RDF>
  </metadata>
  <g
     transform="translate(1324.6563,-66.1875)"
     id="g4011"
     style="display:inline">
    <g
       transform="scale(0.95292114,1.0494048)"
       id="g4007"
       style="font-size:151.11428833px;font-style:normal;font-variant:normal;font-weight:normal;font-stretch:normal;line-height:125%;letter-spacing:0px;word-spacing:0px;fill:#000000;fill-opacity:1;stroke:none;display:inline;font-family:Broadway;-inkscape-font-specification:Broadway" />
  </g>
  <g
     inkscape:groupmode="layer"
     id="layer1"
     inkscape:label="Layer"
     style="display:none"
     transform="translate(1290.5,-25.625)">
    <path
       inkscape:connector-curvature="0"
       d="m -912.64208,25.617585 c -208.68472,0 -377.84372,169.158985 -377.84372,377.843745 0,208.68476 169.159,377.875 377.84372,377.875 208.68476,0 377.875,-169.19024 377.875,-377.875 0,-208.68476 -169.19024,-377.843745 -377.875,-377.843745 z m -46.375,142.812495 2.34375,0 2.125,0 c 0,0 7.59511,21.38859 13.0625,30.59375 11.20895,18.87191 22.71417,13.50537 19.78125,33.78125 -0.83659,5.78346 -4.07111,10.17063 -8.25,13.5 15.03713,-0.23739 29.80197,0.38101 43.34375,2.375 -6.44424,-7.77308 -10.68599,-16.55165 -8.53125,-25.15625 6.17682,-24.66624 20.52535,-10.67284 47.0625,-23.9375 12.94403,-6.47011 35.4375,-25.03125 35.4375,-25.03125 l 3.46875,1.59375 -38.09375,81.71875 c 15.65969,5.04775 29.95832,11.70916 43.6875,20.8125 24.63803,16.33662 46.05696,37.27883 61.03125,64.34375 13.83429,25.09386 20.78089,51.42854 20.78125,79.03125 -3.6e-4,29.39554 -7.75686,57.10411 -23.21875,83.09375 -24.90266,41.76301 -61.90913,63.99897 -111.0625,66.6875 15.62475,11.82989 32.46458,21.95076 50.53125,30.375 18.22887,8.24506 37.76009,14.68352 58.59375,19.34375 5.04523,1.07545 7.56216,3.76075 7.5625,8.0625 -3.4e-4,5.91492 -3.73212,8.875 -11.21875,8.875 -17.09016,0 -41.10706,-8.22868 -72.03125,-24.71875 -25.71638,-13.80145 -55.17208,-35.14231 -88.375,-64 l 0,11.03125 0.25,45.6875 0,26.09375 -148.68747,0 0,-12.09375 0.4687,-87.65625 0.75,-104.84375 -0.4687,-155.75 -44.8125,-96.09375 3.4687,-1.59375 c 0,0 22.5247,18.56114 35.4688,25.03125 26.5371,13.26467 40.8544,-0.72874 47.0312,23.9375 3.3649,13.43697 -8.8716,27.27673 -20.7187,37.09375 17.4057,-4.08254 41.94164,-9.43845 57.68747,-11.03125 0.53554,-0.0542 1.08758,-0.10275 1.625,-0.15625 -6.32308,-3.53996 -11.80614,-8.80373 -12.9375,-16.625 -2.93293,-20.27588 8.54105,-14.90934 19.75,-33.78125 5.4674,-9.20516 13.09375,-30.59375 13.09375,-30.59375 z m 49.96875,115.96875 -2.1875,180.15625 0,48.65625 0.25,12.625 c 9.9282,10.57526 20.48809,20.35058 31.71875,29.3125 l 11.71875,0.28125 c 33.5284,7e-5 61.85649,-10.32481 84.96875,-30.9375 14.64811,-12.90515 25.87467,-29.01694 33.6875,-48.375 7.32388,-17.74459 10.99965,-35.85059 11,-54.3125 -3.5e-4,-31.36675 -9.2894,-59.42087 -27.84375,-84.15625 -14.16047,-19.17837 -31.89743,-32.70686 -53.21875,-40.59375 -21.32186,-7.88621 -51.35699,-12.11818 -90.09375,-12.65625 z m -78.0625,232.21875 c -20.64197,0 -37.37497,16.733 -37.37497,37.375 0,20.642 16.733,37.375 37.37497,37.375 20.642,0 37.375,-16.733 37.375,-37.375 0,-20.642 -16.733,-37.375 -37.375,-37.375 z"
       id="path3731-4"
       style="fill:#000000" />
    <rect
       style="fill:#ff0000;fill-opacity:0.53333297"
       id="rect3210"
       width="951.05286"
       height="944.64844"
       x="-1370.5408"
       y="-28.819782" />
  </g>
  <g
     style="display:inline"
     inkscape:label="Layer copy"
     id="g3213"
     inkscape:groupmode="layer"
     transform="translate(1290.5,-25.625)">
    <path
       style="fill:#000000"
       d="m -912.65625,25.625 c -208.68475,0 -377.84375,169.15899 -377.84375,377.84375 0,208.68476 169.159,377.875 377.84375,377.875 208.68476,0 377.875,-169.19024 377.875,-377.875 0,-208.68476 -169.19024,-377.84375 -377.875,-377.84375 z m 4.03125,23.96875 c 58.06771,0.213105 115.66995,15.905765 166.40625,43.78125 93.465,49.84302 160.12145,144.65067 178.28125,248.75 18.72723,99.77673 -10.3766,206.48687 -73.9375,284.65625 -64.62591,81.47161 -167.89349,129.97319 -271.875,130.71875 -110.3517,2.1689 -218.735,-52.45641 -284.9062,-139.96875 -78.6551,-100.3677 -93.3363,-245.19861 -40.5313,-360.71875 54.6804,-123.26108 185.7014,-208.13239 320.9375,-207.1875 1.87389,-0.02544 3.75185,-0.03812 5.625,-0.03125 z m -50.40625,118.84375 c 0,0 -7.62635,21.38859 -13.09375,30.59375 -11.20895,18.87191 -22.68293,13.50537 -19.75,33.78125 1.13136,7.82127 6.61442,13.08504 12.9375,16.625 -0.53742,0.0535 -1.08946,0.10205 -1.625,0.15625 -15.74583,1.5928 -40.2818,6.94871 -57.6875,11.03125 11.8471,-9.81702 24.0837,-23.65678 20.7188,-37.09375 -6.1771,-24.66624 -20.4942,-10.67283 -47.0313,-23.9375 -12.9441,-6.47011 -35.4687,-25.03125 -35.4687,-25.03125 l -3.4688,1.59375 44.8125,96.09375 0.4687,155.75 -0.75,104.84375 -0.4687,87.65625 0,12.09375 148.6875,0 0,-26.09375 -0.25,-45.6875 0,-11.03125 c 33.20292,28.85769 62.65862,50.19855 88.375,64 30.92419,16.49007 54.94109,24.71875 72.03125,24.71875 7.48663,0 11.21841,-2.96008 11.21875,-8.875 -3.4e-4,-4.30175 -2.51727,-6.98705 -7.5625,-8.0625 -20.83366,-4.66023 -40.36488,-11.09869 -58.59375,-19.34375 -18.06667,-8.42424 -34.9065,-18.54511 -50.53125,-30.375 49.15337,-2.68853 86.15984,-24.92449 111.0625,-66.6875 15.46189,-25.98964 23.21839,-53.69821 23.21875,-83.09375 -3.6e-4,-27.60271 -6.94696,-53.93739 -20.78125,-79.03125 -14.97429,-27.06492 -36.39322,-48.00713 -61.03125,-64.34375 -13.72918,-9.10334 -28.02781,-15.76475 -43.6875,-20.8125 l 38.09375,-81.71875 -3.46875,-1.59375 c 0,0 -22.49347,18.56114 -35.4375,25.03125 -26.53715,13.26466 -40.88568,-0.72874 -47.0625,23.9375 -2.15474,8.6046 2.08701,17.38317 8.53125,25.15625 -13.54178,-1.99399 -28.30662,-2.61239 -43.34375,-2.375 4.17889,-3.32937 7.41341,-7.71654 8.25,-13.5 2.93292,-20.27588 -8.5723,-14.90934 -19.78125,-33.78125 -5.46739,-9.20516 -13.0625,-30.59375 -13.0625,-30.59375 l -2.125,0 -2.34375,0 z m 49.96875,115.96875 c 38.73676,0.53807 68.77189,4.77004 90.09375,12.65625 21.32132,7.88689 39.05828,21.41538 53.21875,40.59375 18.55435,24.73538 27.8434,52.7895 27.84375,84.15625 -3.5e-4,18.46191 -3.67612,36.56791 -11,54.3125 -7.81283,19.35806 -19.03939,35.46985 -33.6875,48.375 -23.11226,20.61269 -51.44035,30.93757 -84.96875,30.9375 l -11.71875,-0.28125 C -890.51191,546.19433 -901.0718,536.41901 -911,525.84375 l -0.25,-12.625 0,-48.65625 2.1875,-180.15625 z M -987.125,516.625 c 20.642,0 37.375,16.733 37.375,37.375 0,20.642 -16.733,37.375 -37.375,37.375 -20.642,0 -37.375,-16.733 -37.375,-37.375 0,-20.642 16.733,-37.375 37.375,-37.375 z"
       id="path3226"
       inkscape:connector-curvature="0" />
  </g>
  <g
     inkscape:groupmode="layer"
     id="g3230"
     inkscape:label="Layer copy copy"
     style="display:none"
     transform="translate(1290.5,-25.625)">
    <path
       style="fill:#000000"
       d="m -959.03125,168.4375 c 0,0 -7.62635,21.38859 -13.09375,30.59375 -11.20895,18.87191 -22.68293,13.50537 -19.75,33.78125 1.13136,7.82127 6.61442,13.08504 12.9375,16.625 -0.53742,0.0535 -1.08946,0.10205 -1.625,0.15625 -15.74583,1.5928 -40.2818,6.94871 -57.6875,11.03125 11.8471,-9.81702 24.0837,-23.65678 20.7188,-37.09375 -6.177,-24.66624 -20.4942,-10.67283 -47.0313,-23.9375 -12.9441,-6.47011 -35.4687,-25.03125 -35.4687,-25.03125 l -3.4688,1.59375 44.8125,96.09375 0.4687,155.75 -0.75,104.84375 -0.4687,87.65625 0,12.09375 148.6875,0 0,-26.09375 -0.25,-45.6875 0,-11.03125 c 33.20292,28.85769 62.65862,50.19855 88.375,64 30.92419,16.49007 54.94109,24.71875 72.03125,24.71875 7.48663,0 11.21841,-2.96008 11.21875,-8.875 -3.4e-4,-4.30175 -2.51727,-6.98705 -7.5625,-8.0625 -20.83366,-4.66023 -40.36488,-11.09869 -58.59375,-19.34375 -18.06667,-8.42424 -34.9065,-18.54511 -50.53125,-30.375 49.15337,-2.68853 86.15984,-24.92449 111.0625,-66.6875 15.46189,-25.98964 23.21839,-53.69821 23.21875,-83.09375 -3.6e-4,-27.60271 -6.94696,-53.93739 -20.78125,-79.03125 -14.97429,-27.06492 -36.39322,-48.00713 -61.03125,-64.34375 -13.72918,-9.10334 -28.02781,-15.76475 -43.6875,-20.8125 l 38.09375,-81.71875 -3.46875,-1.59375 c 0,0 -22.49347,18.56114 -35.4375,25.03125 -26.53715,13.26466 -40.88568,-0.72874 -47.0625,23.9375 -2.15474,8.6046 2.08701,17.38317 8.53125,25.15625 -13.54178,-1.99399 -28.30662,-2.61239 -43.34375,-2.375 4.17889,-3.32937 7.41341,-7.71654 8.25,-13.5 2.93292,-20.27588 -8.5723,-14.90934 -19.78125,-33.78125 -5.46739,-9.20516 -13.0625,-30.59375 -13.0625,-30.59375 l -2.125,0 -2.34375,0 z m 49.96875,115.96875 c 38.73676,0.53807 68.77189,4.77004 90.09375,12.65625 21.32132,7.88689 39.05828,21.41538 53.21875,40.59375 18.55435,24.73538 27.8434,52.7895 27.84375,84.15625 -3.5e-4,18.46191 -3.67612,36.56791 -11,54.3125 -7.81283,19.35806 -19.03939,35.46985 -33.6875,48.375 -23.11226,20.61269 -51.44035,30.93757 -84.96875,30.9375 l -11.71875,-0.28125 C -890.51191,546.19433 -901.0718,536.41901 -911,525.84375 l -0.25,-12.625 0,-48.65625 2.1875,-180.15625 z M -987.125,516.625 c 20.642,0 37.375,16.733 37.375,37.375 0,20.642 -16.733,37.375 -37.375,37.375 -20.642,0 -37.375,-16.733 -37.375,-37.375 0,-20.642 16.733,-37.375 37.375,-37.375 z"
       id="path3234"
       inkscape:connector-curvature="0" />
  </g>
</svg>
